<svg xmlns="http://www.w3.org/2000/svg" width="1148.586" height="902.522" viewBox="0 0 1148.586 902.522">
  <g id="heroImage" transform="translate(-187.9 -138.525)">
    <g id="backgound">
      <g id="Group_2" data-name="Group 2">
        <g id="Group_1" data-name="Group 1">
          <path id="Path_1" data-name="Path 1" d="M1098.7,701.7c-.1,16.2-.3,32.5-.4,48.7,0,4-.1,8-.1,11.9,0,2.7-.6,6.1.5,8.7,1.7,4.4,7.4,3.2,9.5,6.9a15.991,15.991,0,0,0,.5-2.1c-7.3,3.6-9.2,11.7-9.8,19.2-.5,7.2-.8,18.8,8.6,20.2a25.1,25.1,0,0,0-.4-2.7c-14.2,6.5-8.5,31.9-2.5,42.1,4.4,7.5,10.9,13.6,17.6,19,3.8,3.1,7.6,6,11.5,9,2.3,1.8,4.6,3.5,6.8,5.3,1.2.9,6.3,3.7,6.5,5.4a17.1,17.1,0,0,1,1.1-1.4h.2a15.991,15.991,0,0,1,.5,2.1c.1-.1.1-.2.2-.3.8-1.7-1.7-3.2-2.6-1.5-.1.1-.1.2-.2.3a1.6,1.6,0,0,0,.5,2.1,1.8,1.8,0,0,0,2.1.3c.6-.2,1.2-.8,1.1-1.4-.4-3.1-3.5-4.5-5.9-6.3-3.5-2.8-7.1-5.5-10.6-8.3-6.6-5.1-13.3-10.2-19-16.2-6.4-6.7-10.8-14.5-12.1-23.8-1.1-7.6-2.1-19.8,6.3-23.7,1.1-.5.9-2.6-.4-2.7-8-1.2-6.9-12.6-6.3-18.7.6-6,2.3-12.3,8.2-15.2a1.577,1.577,0,0,0,.5-2.1c-2.1-3.6-7.2-2.9-9.1-6.1-1.5-2.4-.5-8-.4-10.9,0-4,.1-8,.1-11.9.1-15.2.2-30.5.4-45.7a1.456,1.456,0,1,0-2.9-.2Z" fill="#e8e8e8"/>
        </g>
      </g>
      <g id="Group_4" data-name="Group 4">
        <g id="Group_3" data-name="Group 3">
          <path id="Path_2" data-name="Path 2" d="M1100.3,702.5c14,.7,23.8,11.4,32.2,21.4,4,4.8,8.2,9.3,12.3,13.8,4.2,4.5,9.7,13.6,2.1,18a1.517,1.517,0,0,0,.8,2.8c11.6.3,16.7,14.4,20.3,23.3a215.659,215.659,0,0,1,10.2,33.2,209.469,209.469,0,0,1,3.2,70.6c-.2,1.9,2.8,1.9,3,0a214.994,214.994,0,0,0-5-78.3A184.943,184.943,0,0,0,1167,772c-3.8-8-9.7-16.3-19.3-16.5.3.9.5,1.9.8,2.8,14.6-8.4-3.5-24.4-9.4-31.3-10.5-12.2-21.1-26.7-38.7-27.6a1.553,1.553,0,0,0-.1,3.1Z" fill="#e8e8e8"/>
        </g>
      </g>
      <g id="Group_6" data-name="Group 6">
        <g id="Group_5" data-name="Group 5">
          <path id="Path_3" data-name="Path 3" d="M1150.5,738.5a327.857,327.857,0,0,1,29.4-71.2,15.979,15.979,0,0,1-2.1.5c2.7,1.6,5.5,3.2,8.2,4.8a1.558,1.558,0,0,0,2.1-2.1c-7.2-14.4,14.4-23.6,21.7-32.2a11.021,11.021,0,0,1-1.8.2c1.4.8,2.9,1.6,4.3,2.4a1.6,1.6,0,0,0,2.1-.5c8-13.6,22.1-21.2,35.7-28.2-.7-.6-1.5-1.1-2.2-1.7-4.3,14.1,2.5,29.5,3.8,43.6a135.8,135.8,0,0,1,.2,23c-.3,3.8,0,9.5-1.5,12.9,0,2.5-1.4,3.9-4.3,4.4-.9.1-1.7.2-2.6.3-2,.2-4.1.4-6.1.6-.8.1-1.6.6-1.5,1.5.1,2,.7,2.6,2.2,3.9,1.9,1.6,3.4,1.8,4.3,4.6a15.07,15.07,0,0,1,.5,4.7,154.41,154.41,0,0,1-2.7,24.4,180.01,180.01,0,0,1-5.8,23c-2.1,6.3-4.9,15.7-12.7,16.7a1.55,1.55,0,0,0-1.3,2.3c5.8,8.9-2.8,19.7-7,27.4-4.6,8.2-8.8,16.6-12.7,25.1a372.894,372.894,0,0,0-19.4,52.3,1.5,1.5,0,0,0,2.9.8,363.734,363.734,0,0,1,23-59.8c4.4-9.1,9.7-17.7,14.3-26.7,3.3-6.5,5.9-14.1,1.6-20.7-.4.8-.9,1.5-1.3,2.3,5.9-.7,9.7-4.9,12.3-10,3.9-7.8,6-16.8,7.9-25.3a172.724,172.724,0,0,0,4-28.6c.2-3.2.5-6.8-.9-9.8-.8-2-5.9-5.1-6-6.5l-1.5,1.5c5.6-.6,13.6.8,15.5-5.6,2.5-8,2.4-17.9,2.3-26.1a142.478,142.478,0,0,0-2.5-26.1c-1.8-9.7-5-19.4-2-29.2a1.518,1.518,0,0,0-2.2-1.7c-14.1,7.3-28.6,15.2-36.8,29.3a15.979,15.979,0,0,1,2.1-.5c-1.4-.8-2.9-1.6-4.3-2.4a1.507,1.507,0,0,0-1.8.2c-8.4,9.9-30.5,19.3-22.2,35.8l2.1-2.1c-2.7-1.6-5.5-3.2-8.2-4.8a1.577,1.577,0,0,0-2.1.5,341.669,341.669,0,0,0-29.7,71.9,1.428,1.428,0,1,0,2.7.9Z" fill="#e8e8e8"/>
        </g>
      </g>
      <g id="Group_8" data-name="Group 8">
        <g id="Group_7" data-name="Group 7">
          <path id="Path_4" data-name="Path 4" d="M1079.8,636.3c-16.8,1.2-25.7-18.5-22.9-32.7,2.7-13.9,16.3-23.7,30.2-23.3,18.3.4,27.7,18.3,24.4,35-2.9,14.9-17.9,25.9-32.9,20-1.8-.7-2.6,2.2-.8,2.9,12,4.7,26-.8,32.6-11.7,7-11.6,6.2-28.2-1.9-39-8.2-11-23.9-12.5-35.8-7.2a31.959,31.959,0,0,0-19.4,29.9c.3,14.2,10.8,30.2,26.4,29.1,2-.1,2.1-3.1.1-3Z" fill="#e8e8e8"/>
        </g>
      </g>
      <g id="Group_10" data-name="Group 10">
        <g id="Group_9" data-name="Group 9">
          <path id="Path_5" data-name="Path 5" d="M1233.3,416.6a206.946,206.946,0,0,1-20.1,30.6c-1.2,1.5.9,3.6,2.1,2.1a207.8,207.8,0,0,0,20.6-31.2c.9-1.7-1.7-3.2-2.6-1.5Z" fill="#e8e8e8"/>
        </g>
      </g>
      <g id="Group_12" data-name="Group 12">
        <g id="Group_11" data-name="Group 11">
          <path id="Path_6" data-name="Path 6" d="M1233.2,419c3.6,9.5,7.4,19,11.3,28.4.7,1.8,3.6,1,2.9-.8-3.9-9.4-7.7-18.9-11.3-28.4-.7-1.8-3.6-1-2.9.8Z" fill="#e8e8e8"/>
        </g>
      </g>
      <g id="Group_14" data-name="Group 14">
        <g id="Group_13" data-name="Group 13">
          <path id="Path_7" data-name="Path 7" d="M1232.5,420.4a500.071,500.071,0,0,1-14.4,110.3,1.5,1.5,0,0,0,2.9.8,501.353,501.353,0,0,0,14.5-111.1c.1-2-2.9-2-3,0Z" fill="#e8e8e8"/>
        </g>
      </g>
      <g id="Group_16" data-name="Group 16">
        <g id="Group_15" data-name="Group 15">
          <path id="Path_8" data-name="Path 8" d="M1249.8,481.5a212.671,212.671,0,0,1-1.9,64.2c-.3,1.9,2.5,2.7,2.9.8a217.989,217.989,0,0,0,2-65c-.3-1.9-3.3-1.9-3,0Z" fill="#e8e8e8"/>
        </g>
      </g>
      <g id="Group_18" data-name="Group 18">
        <g id="Group_17" data-name="Group 17">
          <path id="Path_9" data-name="Path 9" d="M1238.3,523.1c3.5,8,9.6,15.3,10,24.3a1.521,1.521,0,0,0,2.8.8c3.5-6.1,7.1-12.2,10.6-18.3a1.5,1.5,0,0,0-2.6-1.5c-3.5,6.1-7.1,12.2-10.6,18.3.9.3,1.9.5,2.8.8-.4-9.7-6.7-17.2-10.4-25.8-.8-1.9-3.4-.4-2.6,1.4Z" fill="#e8e8e8"/>
        </g>
      </g>
      <g id="Group_20" data-name="Group 20">
        <g id="Group_19" data-name="Group 19">
          <path id="Path_10" data-name="Path 10" d="M556,1029.4c60.3-5.6,120.7-12.9,181.2-15.4,61-2.5,122.3-.9,183.3.7,35,.9,70,2.6,104.8,5.9,1.9.2,1.9-2.8,0-3-61.2-5.8-122.6-6.5-184-7.2-30.8-.4-61.6-.7-92.3.3-29.9.9-59.7,3.4-89.5,6.1L556,1026.4c-1.9.1-1.9,3.1,0,3Z" fill="#e8e8e8"/>
        </g>
      </g>
      <g id="Group_22" data-name="Group 22">
        <g id="Group_21" data-name="Group 21">
          <path id="Path_11" data-name="Path 11" d="M869.8,985.2c25.1,4.7,49.9,4.5,75.2,2.2,26-2.4,51.9-3.9,78-5.1,52.4-2.3,104.8-4.4,157.1-6.6,29.9-1.3,59.8-2.5,89.7-3.8,1.9-.1,1.9-3.1,0-3q-78.75,3.3-157.4,6.6c-51.6,2.2-103.5,3.3-155,7.7-14,1.2-28,2.8-42,3a224.9,224.9,0,0,1-44.8-4c-1.9-.2-2.7,2.7-.8,3Z" fill="#e8e8e8"/>
        </g>
      </g>
      <g id="Group_24" data-name="Group 24">
        <g id="Group_23" data-name="Group 23">
          <path id="Path_12" data-name="Path 12" d="M189.4,964q69.9,1.95,139.8-.6c1.9-.1,1.9-3.1,0-3q-69.9,2.55-139.8.6c-2-.1-2,2.9,0,3Z" fill="#e8e8e8"/>
        </g>
      </g>
      <g id="Group_26" data-name="Group 26">
        <g id="Group_25" data-name="Group 25">
          <path id="Path_13" data-name="Path 13" d="M240.3,1004.2c17-3.6,35-1.3,52.2-.5,17.3.9,34.5,1.7,51.8,2.6,35.2,1.8,70.3,3.6,105.5,5.3,1.9.1,1.9-2.9,0-3-35.8-1.8-71.7-3.6-107.5-5.4l-53.7-2.7c-16.3-.8-32.9-2.7-49,.8-1.9.4-1.1,3.3.7,2.9Z" fill="#e8e8e8"/>
        </g>
      </g>
      <g id="Group_28" data-name="Group 28">
        <g id="Group_27" data-name="Group 27">
          <path id="Path_14" data-name="Path 14" d="M509.9,928c61.8,4.2,122.6-11.8,184.3-11.6a1.5,1.5,0,0,0,0-3c-61.7-.2-122.5,15.7-184.3,11.6-1.9-.2-1.9,2.9,0,3Z" fill="#e8e8e8"/>
        </g>
      </g>
      <g id="Group_30" data-name="Group 30">
        <g id="Group_29" data-name="Group 29">
          <path id="Path_15" data-name="Path 15" d="M463.6,617.2a29.835,29.835,0,0,1,1.8-5c.5-.7.9-1.3,1.4-2,2.1-.2,4.3-.5,6.4-.7.6.4,1.1,1.6,1.5,2.2a18.2,18.2,0,0,0,5.4,5.3,16.653,16.653,0,0,0,14.4,1.4c12.3-4.5,16.9-20.8,31.9-19.2a17.86,17.86,0,0,1,10.7,4.8c2.2,2.1,3.9,4.7,6.2,6.7,4.1,3.4,9.2,3.9,14.1,2.1,6-2.1,10.6-6.6,15.1-10.9,6.1-5.7,15-12.6,23.1-6.5,5.3,3.9,8.4,9.9,15,12a19.7,19.7,0,0,0,18-3.1c1.5-1.1,0-3.8-1.5-2.6-7.2,5.4-16.2,4.5-22.5-1.8-4.2-4.1-7.8-9.2-14-9.9-14.6-1.8-22.2,16-34.6,20.1-9.4,3.1-12.5-5.3-18.7-9.9a21.443,21.443,0,0,0-16.1-3.9c-6,.9-10.6,4.5-14.8,8.6-4.9,4.9-10.1,11.6-17.7,11.6-5.1,0-9-2.8-11.8-6.8-1.6-2.2-2.9-4-5.8-4.3-6.3-.6-9,6-10.5,10.9a1.571,1.571,0,0,0,3,.9Z" fill="#e8e8e8"/>
        </g>
      </g>
      <g id="Group_32" data-name="Group 32">
        <g id="Group_31" data-name="Group 31">
          <path id="Path_16" data-name="Path 16" d="M617.8,565.5c3.6-10.5,16.2-1.6,21,2.3,4.2,3.4,9.1,6.9,14.8,6.7,9.4-.4,14.4-10,22.1-14,10.7-5.5,17.2,8.8,27.6,7.4,4.6-.6,7-4.3,9.9-7.5,3.1-3.4,6.3-3.4,10.7-2.4,4.1,1,8.3,2,12.4,3a1.5,1.5,0,0,0,.8-2.9c-4.1-1-8.3-2-12.4-3-2.8-.7-5.6-1.5-8.4-.7-5.5,1.7-7.1,9-12.6,10.3-5.9,1.4-11.7-5.2-16.8-7.3a13.98,13.98,0,0,0-12.6.4c-4.4,2.3-7.7,6.2-11.6,9.3-2.6,2.1-5.5,4-8.9,4.2-5.2.3-9.5-3.3-13.3-6.3-4.6-3.6-9.5-7.9-15.8-7.4-4.5.3-8.2,2.7-9.7,7-.7,1.9,2.2,2.7,2.8.9Z" fill="#e8e8e8"/>
        </g>
      </g>
      <g id="Group_34" data-name="Group 34">
        <g id="Group_33" data-name="Group 33">
          <path id="Path_17" data-name="Path 17" d="M1069.9,273.7c-.9,18.7-1.5,37.5-1.7,56.3a1.5,1.5,0,0,0,3,0c.2-18.8.8-37.5,1.7-56.3.1-1.9-2.9-1.9-3,0Z" fill="#e8e8e8"/>
        </g>
      </g>
      <g id="Group_36" data-name="Group 36">
        <g id="Group_35" data-name="Group 35">
          <path id="Path_18" data-name="Path 18" d="M1071.9,275.1c23.1-3.2,46.6-6.3,69.6-.9,1.9.4,2.7-2.4.8-2.9-23.5-5.6-47.6-2.4-71.2.9-1.9.2-1.1,3.1.8,2.9Z" fill="#e8e8e8"/>
        </g>
      </g>
      <g id="Group_38" data-name="Group 38">
        <g id="Group_37" data-name="Group 37">
          <path id="Path_19" data-name="Path 19" d="M1139.6,275.2c.5,38-.2,76.1-2.2,114.1-.1,1.9,2.9,1.9,3,0q3-57,2.2-114.1a1.5,1.5,0,0,0-3,0Z" fill="#e8e8e8"/>
        </g>
      </g>
      <g id="Group_40" data-name="Group 40">
        <g id="Group_39" data-name="Group 39">
          <path id="Path_20" data-name="Path 20" d="M1070.7,379.1c.5,4.8.7,9.8,1.6,14.5a7.757,7.757,0,0,0,3.3,5.3c6.3,4.1,16.5,1.7,23.4,1.3,9.8-.6,19.7-1.2,29.5-1.8,4.4-.3,11.4-1.5,8.7-7.6-.8-1.8-3.4-.2-2.6,1.5.5,1.1-5.1,2.9-6.1,3.1a40.277,40.277,0,0,1-4.9.3c-2.9.2-5.9.4-8.8.5-5.9.4-11.8.7-17.7,1.1-5.4.3-11.4,1.4-16.8.2-6.8-1.6-5.9-12.6-6.6-18.3-.2-2-3.2-2-3-.1Z" fill="#e8e8e8"/>
        </g>
      </g>
      <g id="Group_42" data-name="Group 42">
        <g id="Group_41" data-name="Group 41">
          <path id="Path_21" data-name="Path 21" d="M1052.5,375.4c-8.8,12.9-17.9,25.6-27.1,38.2a1.362,1.362,0,0,0,0,1.5,6.049,6.049,0,0,0,7.2,2.6c4.3-1.3,6.4-6.2,8.6-9.6a142.917,142.917,0,0,1,12.1-16c1.9-2.1,3.8-4.2,5.8-6.2,2.3-2.3,6.2-7.2,9.5-7.7,1.9-.3,1.1-3.2-.8-2.9-3,.5-5,2.9-7.2,4.9-2.9,2.7-5.7,5.5-8.4,8.5a148.894,148.894,0,0,0-14.2,18.5c-1.2,1.8-2.2,4-3.7,5.6-1.6,2.3-3.3,2.5-5.3.6.6-.8,1.2-1.6,1.7-2.4,2.7-3.7,5.4-7.4,8-11.1,5.5-7.7,10.9-15.4,16.2-23.2,1.3-1.4-1.3-2.9-2.4-1.3Z" fill="#e8e8e8"/>
        </g>
      </g>
      <g id="Group_44" data-name="Group 44">
        <g id="Group_43" data-name="Group 43">
          <path id="Path_22" data-name="Path 22" d="M1068.1,379.1a31.354,31.354,0,0,0,29.2-18.6c4.4-10.3,2-23.7-7.3-30.5-10.7-7.7-24.4-1.9-32.7,6.5-4.9,5-9,11.3-10,18.3a21.062,21.062,0,0,0,.4,8.3,17.651,17.651,0,0,0,1.8,4.5c.2.4,4.8,6.9,2.8,6.8-1.9-.2-1.9,2.8,0,3,3.1.3,4.7-2.5,3.8-5.3-.7-2.3-2.9-3.9-4.1-6a17.506,17.506,0,0,1-1.7-10.8c1.7-12.8,15.3-26.2,28.5-26,13,.1,19.8,14.6,17.1,26-3,12.4-15.2,21.1-27.8,20.7a1.551,1.551,0,0,0,0,3.1Z" fill="#e8e8e8"/>
        </g>
      </g>
      <g id="Group_46" data-name="Group 46">
        <g id="Group_45" data-name="Group 45">
          <path id="Path_23" data-name="Path 23" d="M1082.3,285.7l-.1-.1v2.1c1.3-1.5,10.3-1.4,12.7-1.7,3.8-.4,7.7-.7,11.5-.9s7.7-.4,11.6-.5c1.7,0,10.6.8,11.2-.8-.7,1.8,2.2,2.6,2.9.8.1-.2.1-.3.2-.5a1.439,1.439,0,0,0-.4-1.5c-2.2-2.2-6.2-1.2-9.1-1.2-5.5,0-10.9.2-16.4.6-5.1.3-10.2.8-15.4,1.3-2.6.3-9.1-.1-11,2.1a1.543,1.543,0,0,0,0,2.1l.1.1c1.5,1.6,3.6-.6,2.2-1.9Z" fill="#e8e8e8"/>
        </g>
      </g>
      <g id="Group_48" data-name="Group 48">
        <g id="Group_47" data-name="Group 47">
          <path id="Path_24" data-name="Path 24" d="M1080.9,300.3c10.1,1.4,19.9,1,30,.6,1.9-.1,1.9-3.1,0-3-9.9.4-19.4.8-29.2-.5-1.9-.2-2.7,2.7-.8,2.9Z" fill="#e8e8e8"/>
        </g>
      </g>
      <g id="Group_50" data-name="Group 50">
        <g id="Group_49" data-name="Group 49">
          <path id="Path_25" data-name="Path 25" d="M1074.1,311.6c-.3.3-.6.7-.9,1a1.539,1.539,0,0,0,1.1,2.6,412.137,412.137,0,0,0,52.1-2.4c1.9-.2,1.9-3.2,0-3a412.132,412.132,0,0,1-52.1,2.4c.4.9.7,1.7,1.1,2.6.3-.3.6-.7.9-1,1.2-1.5-.9-3.6-2.2-2.2Z" fill="#e8e8e8"/>
        </g>
      </g>
      <g id="Group_52" data-name="Group 52">
        <g id="Group_51" data-name="Group 51">
          <path id="Path_26" data-name="Path 26" d="M1095.6,328a112.611,112.611,0,0,0,27.2-1.2c1.9-.3,1.1-3.2-.8-2.9a111.311,111.311,0,0,1-26.4,1.1c-2-.1-2,2.9,0,3Z" fill="#e8e8e8"/>
        </g>
      </g>
      <g id="Group_54" data-name="Group 54">
        <g id="Group_53" data-name="Group 53">
          <path id="Path_27" data-name="Path 27" d="M1071.2,368.5c-8.1.4-15-6.7-12.4-14.9,2-6.5,9.5-13.4,16.3-14.5a11.434,11.434,0,0,1,9.4,2.6c3.7,3.4,2.7,8.4,1,12.5-2.9,7.2-8.2,13.7-16.3,14.6-1.9.2-1.9,3.2,0,3,10.4-1.1,17.8-10,20.3-19.8,2.4-9.2-4.4-16.8-13.9-16-8.8.8-18.5,9.7-20.1,18.4-1.7,9.7,6.2,17.6,15.7,17.1,1.9-.1,1.9-3.1,0-3Z" fill="#e8e8e8"/>
        </g>
      </g>
      <g id="Group_56" data-name="Group 56">
        <g id="Group_55" data-name="Group 55">
          <path id="Path_28" data-name="Path 28" d="M1072.9,340.4c-4,8.6-7.7,17.3-11,26.1-.7,1.8,2.2,2.6,2.9.8,3.3-8.6,6.8-17.1,10.7-25.4.8-1.8-1.7-3.3-2.6-1.5Z" fill="#e8e8e8"/>
        </g>
      </g>
      <g id="Group_58" data-name="Group 58">
        <g id="Group_57" data-name="Group 57">
          <path id="Path_29" data-name="Path 29" d="M1077.5,349c-2.6,5.4-5.1,10.8-7.7,16.2-.8,1.7,1.8,3.3,2.6,1.5,2.6-5.4,5.1-10.8,7.7-16.2.8-1.7-1.7-3.3-2.6-1.5Z" fill="#e8e8e8"/>
        </g>
      </g>
      <g id="Group_60" data-name="Group 60">
        <g id="Group_59" data-name="Group 59">
          <path id="Path_30" data-name="Path 30" d="M334.1,185.7v27.4a1.5,1.5,0,0,0,3,0V185.7a1.5,1.5,0,0,0-3,0Z" fill="#e8e8e8"/>
        </g>
      </g>
      <g id="Group_62" data-name="Group 62">
        <g id="Group_61" data-name="Group 61">
          <path id="Path_31" data-name="Path 31" d="M336,214.4h25.4a1.5,1.5,0,0,0,0-3H336a1.5,1.5,0,0,0,0,3Z" fill="#e8e8e8"/>
        </g>
      </g>
      <g id="Group_64" data-name="Group 64">
        <g id="Group_63" data-name="Group 63">
          <path id="Path_32" data-name="Path 32" d="M363.2,211.2V181.4a1.5,1.5,0,0,0-3,0v29.8a1.5,1.5,0,0,0,3,0Z" fill="#e8e8e8"/>
        </g>
      </g>
      <g id="Group_66" data-name="Group 66">
        <g id="Group_65" data-name="Group 65">
          <path id="Path_33" data-name="Path 33" d="M362.1,179.5h-26a1.5,1.5,0,0,0,0,3h26a1.5,1.5,0,0,0,0-3Z" fill="#e8e8e8"/>
        </g>
      </g>
      <g id="Group_68" data-name="Group 68">
        <g id="Group_67" data-name="Group 67">
          <path id="Path_34" data-name="Path 34" d="M346.8,216v30.5a1.5,1.5,0,0,0,3,0V216a1.5,1.5,0,0,0-3,0Z" fill="#e8e8e8"/>
        </g>
      </g>
      <g id="Group_70" data-name="Group 70">
        <g id="Group_69" data-name="Group 69">
          <path id="Path_35" data-name="Path 35" d="M311.6,246.1q16.65-15.9,34.7-30.5c1.5-1.2-.6-3.3-2.1-2.1-12,9.7-23.5,19.8-34.7,30.5-1.4,1.3.7,3.4,2.1,2.1Z" fill="#e8e8e8"/>
        </g>
      </g>
      <g id="Group_72" data-name="Group 72">
        <g id="Group_71" data-name="Group 71">
          <path id="Path_36" data-name="Path 36" d="M350,216.6l36,27.3c1.5,1.2,3-1.4,1.5-2.6l-36-27.3c-1.5-1.2-3,1.4-1.5,2.6Z" fill="#e8e8e8"/>
        </g>
      </g>
      <g id="Group_74" data-name="Group 74">
        <g id="Group_73" data-name="Group 73">
          <path id="Path_37" data-name="Path 37" d="M300,249.7h19.9a1.5,1.5,0,0,0,0-3H300a1.5,1.5,0,0,0,0,3Z" fill="#e8e8e8"/>
        </g>
      </g>
      <g id="Group_76" data-name="Group 76">
        <g id="Group_75" data-name="Group 75">
          <path id="Path_38" data-name="Path 38" d="M318.1,250.3v22.6a1.5,1.5,0,0,0,3,0V250.3a1.5,1.5,0,0,0-3,0Z" fill="#e8e8e8"/>
        </g>
      </g>
      <g id="Group_78" data-name="Group 78">
        <g id="Group_77" data-name="Group 77">
          <path id="Path_39" data-name="Path 39" d="M297.8,248.9v26.4a1.5,1.5,0,0,0,3,0V248.9a1.5,1.5,0,0,0-3,0Z" fill="#e8e8e8"/>
        </g>
      </g>
      <g id="Group_80" data-name="Group 80">
        <g id="Group_79" data-name="Group 79">
          <path id="Path_40" data-name="Path 40" d="M299,277.1h18.5a1.5,1.5,0,0,0,0-3H299a1.5,1.5,0,0,0,0,3Z" fill="#e8e8e8"/>
        </g>
      </g>
      <g id="Group_82" data-name="Group 82">
        <g id="Group_81" data-name="Group 81">
          <path id="Path_41" data-name="Path 41" d="M337.6,249.6v26a1.5,1.5,0,0,0,3,0v-26a1.5,1.5,0,0,0-3,0Z" fill="#e8e8e8"/>
        </g>
      </g>
      <g id="Group_84" data-name="Group 84">
        <g id="Group_83" data-name="Group 83">
          <path id="Path_42" data-name="Path 42" d="M339.1,276.4h18.2a1.5,1.5,0,0,0,0-3H339.1a1.5,1.5,0,0,0,0,3Z" fill="#e8e8e8"/>
        </g>
      </g>
      <g id="Group_86" data-name="Group 86">
        <g id="Group_85" data-name="Group 85">
          <path id="Path_43" data-name="Path 43" d="M340.1,251.1h16.1a1.5,1.5,0,0,0,0-3H340.1a1.5,1.5,0,0,0,0,3Z" fill="#e8e8e8"/>
        </g>
      </g>
      <g id="Group_88" data-name="Group 88">
        <g id="Group_87" data-name="Group 87">
          <path id="Path_44" data-name="Path 44" d="M355.1,249.2v24.7a1.5,1.5,0,0,0,3,0V249.2a1.5,1.5,0,0,0-3,0Z" fill="#e8e8e8"/>
        </g>
      </g>
      <g id="Group_90" data-name="Group 90">
        <g id="Group_89" data-name="Group 89">
          <path id="Path_45" data-name="Path 45" d="M380,249.2c-.3,6.5-.5,13-.5,19.5a1.5,1.5,0,0,0,3,0c0-6.5.2-13,.5-19.5.1-1.9-2.9-1.9-3,0Z" fill="#e8e8e8"/>
        </g>
      </g>
      <g id="Group_92" data-name="Group 92">
        <g id="Group_91" data-name="Group 91">
          <path id="Path_46" data-name="Path 46" d="M381.3,249.9c6.6-.7,13.2-1.5,19.8-2.2,1.9-.2,1.9-3.2,0-3-6.6.7-13.2,1.5-19.8,2.2-1.9.2-2,3.2,0,3Z" fill="#e8e8e8"/>
        </g>
      </g>
      <g id="Group_94" data-name="Group 94">
        <g id="Group_93" data-name="Group 93">
          <path id="Path_47" data-name="Path 47" d="M400.1,246.8a69.832,69.832,0,0,0,.7,19.9c.3,1.9,3.2,1.1,2.9-.8a68,68,0,0,1-.6-19.1c.2-1.9-2.8-1.9-3,0Z" fill="#e8e8e8"/>
        </g>
      </g>
      <g id="Group_96" data-name="Group 96">
        <g id="Group_95" data-name="Group 95">
          <path id="Path_48" data-name="Path 48" d="M382.3,271.3l19.8-3c1.9-.3,1.1-3.2-.8-2.9l-19.8,3c-1.9.3-1.1,3.1.8,2.9Z" fill="#e8e8e8"/>
        </g>
      </g>
      <g id="Group_98" data-name="Group 98">
        <g id="Group_97" data-name="Group 97">
          <path id="Path_49" data-name="Path 49" d="M346.4,277.3a150.254,150.254,0,0,0-9.8,17.5c-.8,1.7,1.8,3.3,2.6,1.5a156.989,156.989,0,0,1,9.8-17.5c1-1.6-1.6-3.1-2.6-1.5Z" fill="#e8e8e8"/>
        </g>
      </g>
      <g id="Group_100" data-name="Group 100">
        <g id="Group_99" data-name="Group 99">
          <path id="Path_50" data-name="Path 50" d="M347.3,278.5a101.541,101.541,0,0,1,9.6,15.7c.9,1.7,3.5.2,2.6-1.5a113.576,113.576,0,0,0-9.6-15.7c-1.1-1.6-3.7-.1-2.6,1.5Z" fill="#e8e8e8"/>
        </g>
      </g>
      <g id="Group_102" data-name="Group 102">
        <g id="Group_101" data-name="Group 101">
          <path id="Path_51" data-name="Path 51" d="M331.2,298.7c2.1,0,4.2,0,6.4.1a28.25,28.25,0,0,1,2.9.2c1.8.1,1.6-.5,1.9,1.1.7,3.8-.1,8.7-.4,12.6-.2,1.9,2.8,1.9,3,0,.2-3,.4-6.1.4-9.1,0-1.7.5-4.5-.4-6.1-.9-1.5-3-1.3-4.5-1.4q-4.65-.3-9.3-.3c-1.9-.1-1.9,2.9,0,2.9Z" fill="#e8e8e8"/>
        </g>
      </g>
      <g id="Group_104" data-name="Group 104">
        <g id="Group_103" data-name="Group 103">
          <path id="Path_52" data-name="Path 52" d="M329.2,298.6c.3,3.5.6,6.9.9,10.4.2,2.8-.2,6.9.9,9.6a2.229,2.229,0,0,0,2,1.7c2.6.5,6.5-.8,9.1-1.2,1.9-.3,1.1-3.1-.8-2.9-1.8.2-4.6,1.3-6.3.9-1.9-.5-1.5-3.1-1.6-5.1-.4-4.5-.8-8.9-1.2-13.4-.2-1.9-3.2-2-3,0Z" fill="#e8e8e8"/>
        </g>
      </g>
      <g id="Group_106" data-name="Group 106">
        <g id="Group_105" data-name="Group 105">
          <path id="Path_53" data-name="Path 53" d="M351.8,298.2a86.171,86.171,0,0,0-.2,8.8c0,.7.9,7.3.6,7.5.5-.1,1-.3,1.5-.4-.1,0-.2-.1-.4-.1a17.1,17.1,0,0,0,1.1,1.4V315a17.1,17.1,0,0,1-1.1,1.4.367.367,0,0,0,.3-.1c1.9-.4,1.1-3.3-.8-2.9a.367.367,0,0,0-.3.1,1.39,1.39,0,0,0-1.1,1.4v.4a1.5,1.5,0,0,0,1.1,1.4c2.6.5,2.6-1.9,2.5-3.8a93.769,93.769,0,0,1-.2-15c.1-1.7-2.9-1.6-3,.3Z" fill="#e8e8e8"/>
        </g>
      </g>
      <g id="Group_108" data-name="Group 108">
        <g id="Group_107" data-name="Group 107">
          <path id="Path_54" data-name="Path 54" d="M353.6,298.9c0-.7,6.4-.9,7.3-.8,2.5.4,2,.6,2.4,2.4.3,1.2-.1,2.9-.2,4.1-.1,2.5-.1,4.9,0,7.4,0,1.4,1,5.6.3,6.6a15.984,15.984,0,0,1,2.1-.5c-.1,0-.2-.1-.3-.1.2.6.5,1.1.7,1.7,0-.1.1-.2.1-.3a1.5,1.5,0,0,0-2.9-.8c0,.1-.1.2-.1.3a1.479,1.479,0,0,0,.7,1.7c.1,0,.2.1.3.1a1.685,1.685,0,0,0,2.1-.5c.7-1,.4-2,.3-3.2-.1-2.7-.3-5.5-.3-8.2s.1-5.5.2-8.2c.1-1.2.4-2.8-.4-3.9-1.7-2.3-7.1-1.6-9.3-1.3-2.5.3-5.8.6-6,3.6,0,1.8,3,1.8,3-.1Z" fill="#e8e8e8"/>
        </g>
      </g>
      <g id="Group_110" data-name="Group 110">
        <g id="Group_109" data-name="Group 109">
          <path id="Path_55" data-name="Path 55" d="M353.9,319.2a29.569,29.569,0,0,1,8.9.8,1.5,1.5,0,0,0,.8-2.9,28.906,28.906,0,0,0-9.7-1c-2,.2-2,3.2,0,3.1Z" fill="#e8e8e8"/>
        </g>
      </g>
      <g id="Group_112" data-name="Group 112">
        <g id="Group_111" data-name="Group 111">
          <path id="Path_56" data-name="Path 56" d="M391.5,271.9c-2.4,5.3-4.5,10.8-6.4,16.3-.6,1.8,2.3,2.6,2.9.8,1.8-5.3,3.8-10.5,6.1-15.6.8-1.8-1.8-3.3-2.6-1.5Z" fill="#e8e8e8"/>
        </g>
      </g>
      <g id="Group_114" data-name="Group 114">
        <g id="Group_113" data-name="Group 113">
          <path id="Path_57" data-name="Path 57" d="M376.2,295.6a49.7,49.7,0,0,1,15.4-1.9c1.9.1,1.9-2.9,0-3a52.207,52.207,0,0,0-16.2,2,1.5,1.5,0,0,0,.8,2.9Z" fill="#e8e8e8"/>
        </g>
      </g>
      <g id="Group_116" data-name="Group 116">
        <g id="Group_115" data-name="Group 115">
          <path id="Path_58" data-name="Path 58" d="M376.1,294.2c-.9,2.8-.2,5.4.1,8.2a85.141,85.141,0,0,1,.2,10.1c-.2,4.4.9,4.9,5.3,4.5,3-.3,7.1.5,8.2-2.8,1-3.2.7-7.5,1-10.9.3-3.6.7-7.3,1-10.9.2-1.9-2.8-1.9-3,0-.4,4.2-.8,8.5-1.2,12.7a51.085,51.085,0,0,1-.5,5.5c-.6,2.8-.9,3-3.8,3.3-.9.1-1.7.2-2.6.3-1.7.6-2.2.1-1.5-1.6-.4-1.4.2-3.6.1-5.1-.1-3.8-1.6-8.9-.5-12.5.7-1.9-2.2-2.7-2.8-.8Z" fill="#e8e8e8"/>
        </g>
      </g>
      <g id="Group_118" data-name="Group 118">
        <g id="Group_117" data-name="Group 117">
          <path id="Path_59" data-name="Path 59" d="M395.7,274.7a107.3,107.3,0,0,1,6.2,11c.8,1.7,3.4.2,2.6-1.5a99.662,99.662,0,0,0-6.2-11c-1.1-1.7-3.7-.2-2.6,1.5Z" fill="#e8e8e8"/>
        </g>
      </g>
      <g id="Group_120" data-name="Group 120">
        <g id="Group_119" data-name="Group 119">
          <path id="Path_60" data-name="Path 60" d="M399.1,290.1h15a1.5,1.5,0,0,0,0-3h-.9a1.5,1.5,0,0,0,0,3h.9a1.5,1.5,0,0,0,0-3h-15a1.5,1.5,0,0,0,0,3Z" fill="#e8e8e8"/>
        </g>
      </g>
      <g id="Group_122" data-name="Group 122">
        <g id="Group_121" data-name="Group 121">
          <path id="Path_61" data-name="Path 61" d="M397.6,290c.4,3.8.7,7.6.8,11.4.1,2.7-.8,7.3.4,9.8.7,1.5,1.6,1.7,3.2,1.7,3.7-.1,7.7-1,11.4-1.5a1.6,1.6,0,0,0,1.1-1.4c-.1-6.8-.2-13.5-.3-20.3a1.5,1.5,0,0,0-3,0c.1,6.8.2,13.5.3,20.3a17.1,17.1,0,0,1,1.1-1.4c-2.4.3-4.8.6-7.2,1-.8.1-3.1.8-3.8.2-.5-.4,0-3.5,0-4.1-.1-5.2-.4-10.4-.9-15.5-.3-2.1-3.3-2.1-3.1-.2Z" fill="#e8e8e8"/>
        </g>
      </g>
      <g id="Group_124" data-name="Group 124">
        <g id="Group_123" data-name="Group 123">
          <path id="Path_62" data-name="Path 62" d="M286.6,298.2a171.865,171.865,0,0,1,16.2-13.4c1.5-1.1,0-3.7-1.5-2.6a172.1,172.1,0,0,0-16.8,13.9c-1.4,1.3.7,3.4,2.1,2.1Z" fill="#e8e8e8"/>
        </g>
      </g>
      <g id="Group_126" data-name="Group 126">
        <g id="Group_125" data-name="Group 125">
          <path id="Path_63" data-name="Path 63" d="M301.9,283.5a74.606,74.606,0,0,1,7.5,13.5c.8,1.8,3.4.2,2.6-1.5a80.429,80.429,0,0,0-7.5-13.5c-1.1-1.6-3.7-.1-2.6,1.5Z" fill="#e8e8e8"/>
        </g>
      </g>
      <g id="Group_128" data-name="Group 128">
        <g id="Group_127" data-name="Group 127">
          <path id="Path_64" data-name="Path 64" d="M273.3,303.7c2.7-.2,5.3-.4,8-.6a22.8,22.8,0,0,1,3.6-.3c1.4-.5,1.8-.4,1.2.4a2.623,2.623,0,0,0-.5,1.9,84.936,84.936,0,0,0-1.5,15.1c.9-.4,1.7-.7,2.6-1.1a1.38,1.38,0,0,1-.3-.4c-1.3-1.4-3.4.7-2.1,2.1a1.38,1.38,0,0,1,.3.4,1.548,1.548,0,0,0,2.6-1.1,108.666,108.666,0,0,1,1.1-12.8c.3-1.8,1.6-4.8.5-6.6-.9-1.4-2.4-1.1-3.8-1-3.9.3-7.7.6-11.6.9-2,.3-2,3.3-.1,3.1Z" fill="#e8e8e8"/>
        </g>
      </g>
      <g id="Group_130" data-name="Group 130">
        <g id="Group_129" data-name="Group 129">
          <path id="Path_65" data-name="Path 65" d="M275.3,300.8h-.4a1.709,1.709,0,0,0-1.3.7c-1.6,2.7-1.5,7.4-2,10.5l-2.1,13.2c-.1.8.2,1.7,1,1.8a23.38,23.38,0,0,0,13.6-.9c1.8-.7,1-3.6-.8-2.9a20.5,20.5,0,0,1-12,.9c.3.6.7,1.2,1,1.8.3-2,3.8-22.1,2.8-22.2,2.1.3,2.1-2.7.2-2.9Z" fill="#e8e8e8"/>
        </g>
      </g>
      <g id="Group_132" data-name="Group 132">
        <g id="Group_131" data-name="Group 131">
          <path id="Path_66" data-name="Path 66" d="M302.5,300.3l-.1.1h2.1c-.1,0-.1-.1-.2-.1v2.1a15.519,15.519,0,0,1,2.3-.1c1.1-.1,2.3-.2,3.4-.2a44.22,44.22,0,0,1,6.3.2c-.4-.9-.7-1.7-1.1-2.6a2.181,2.181,0,0,0-.5.4c-1.9.2-1.9,3.2,0,3a3.676,3.676,0,0,0,2.7-1.3,1.539,1.539,0,0,0-1.1-2.6,63.164,63.164,0,0,0-8.7-.1c-1.4.1-4.3-.2-5.3,1.1a1.449,1.449,0,0,0,0,2.1c.1,0,.1.1.2.1a1.449,1.449,0,0,0,2.1,0l.1-.1c1.2-1.3-.9-3.4-2.2-2Z" fill="#e8e8e8"/>
        </g>
      </g>
      <g id="Group_134" data-name="Group 134">
        <g id="Group_133" data-name="Group 133">
          <path id="Path_67" data-name="Path 67" d="M301.3,301c-.3,4.1-.6,8.2-.8,12.3-.1,2.3-1.4,8.2,0,10.3a2.626,2.626,0,0,0,2.7,1.3c1.3,0,2.7-.9,3.9-1.2a26.334,26.334,0,0,1,7.4-.9,1.5,1.5,0,0,0,0-3,29.624,29.624,0,0,0-6.6.7c-1,.2-2.9,1.3-3.8,1.1-.7.5-1,.4-.8-.4a10.444,10.444,0,0,1,0-2.5c.1-5.8.6-11.7,1-17.5.2-2.2-2.8-2.2-3-.2Z" fill="#e8e8e8"/>
        </g>
      </g>
      <g id="Group_136" data-name="Group 136">
        <g id="Group_135" data-name="Group 135">
          <path id="Path_68" data-name="Path 68" d="M314.2,301.3a151.056,151.056,0,0,0-1.1,20.2,1.5,1.5,0,0,0,3,0,151.051,151.051,0,0,1,1.1-20.2c.3-1.9-2.7-1.9-3,0Z" fill="#e8e8e8"/>
        </g>
      </g>
      <g id="Group_138" data-name="Group 138">
        <g id="Group_137" data-name="Group 137">
          <path id="Path_69" data-name="Path 69" d="M1113,720.8a640.557,640.557,0,0,1,49.2,163c.3,1.9,3.2,1.1,2.9-.8a646.238,646.238,0,0,0-49.5-163.7c-.8-1.7-3.4-.2-2.6,1.5Z" fill="#e8e8e8"/>
        </g>
      </g>
      <g id="Group_140" data-name="Group 140">
        <g id="Group_139" data-name="Group 139">
          <path id="Path_70" data-name="Path 70" d="M1237.5,633c-29.2,44.6-54.6,91.6-72.6,141.9-.7,1.8,2.2,2.6,2.9.8,17.9-50.1,43.2-96.8,72.3-141.2,1-1.6-1.6-3.1-2.6-1.5Z" fill="#e8e8e8"/>
        </g>
      </g>
      <g id="Group_142" data-name="Group 142">
        <g id="Group_141" data-name="Group 141">
          <path id="Path_71" data-name="Path 71" d="M1102.8,775.6a68.727,68.727,0,0,1,39.4,28.4c1.1,1.6,3.7.1,2.6-1.5a71.93,71.93,0,0,0-41.2-29.8,1.5,1.5,0,0,0-.8,2.9Z" fill="#e8e8e8"/>
        </g>
      </g>
      <g id="Group_144" data-name="Group 144">
        <g id="Group_143" data-name="Group 143">
          <path id="Path_72" data-name="Path 72" d="M1141.8,734.1a78.1,78.1,0,0,0-10.7,29.6c-.3,1.9,2.6,2.7,2.9.8a76.665,76.665,0,0,1,10.4-28.9c1-1.6-1.6-3.1-2.6-1.5Z" fill="#e8e8e8"/>
        </g>
      </g>
      <g id="Group_146" data-name="Group 146">
        <g id="Group_145" data-name="Group 145">
          <path id="Path_73" data-name="Path 73" d="M1172.9,677.9a57.752,57.752,0,0,1,10.9,18.3c1.2,3,2.2,6.1,3.1,9.1.9,2.9,3,7.2,1.8,10.1-.7,1.8,2.2,2.6,2.9.8,1.2-2.9,0-5.8-.9-8.6-1.2-4.1-2.5-8.2-4.1-12.2a63.506,63.506,0,0,0-11.7-19.7c-1.2-1.4-3.3.7-2,2.2Z" fill="#e8e8e8"/>
        </g>
      </g>
      <g id="Group_148" data-name="Group 148">
        <g id="Group_147" data-name="Group 147">
          <path id="Path_74" data-name="Path 74" d="M1206.8,689.4a95.026,95.026,0,0,1,47.1-29.6,1.5,1.5,0,0,0-.8-2.9,98.13,98.13,0,0,0-48.4,30.3c-1.2,1.5.9,3.7,2.1,2.2Z" fill="#e8e8e8"/>
        </g>
      </g>
      <g id="Group_150" data-name="Group 150">
        <g id="Group_149" data-name="Group 149">
          <path id="Path_75" data-name="Path 75" d="M1171.5,769.7c9-8,19.6-13.6,30.8-17.8,5.1-1.9,10.2-3.4,15.4-4.9,2.9-.8,5.7-1.5,8.6-2.3,1.4-.3,7.3-2.7,8.4-2.1a15.991,15.991,0,0,1-.5-2.1c-.1.1-.1.2-.2.3a15.979,15.979,0,0,1,2.1-.5c-.1,0-.2-.1-.3-.1-1.7-.9-3.2,1.7-1.5,2.6.1,0,.2.1.3.1a1.6,1.6,0,0,0,2.1-.5c.1-.1.1-.2.2-.3a1.6,1.6,0,0,0-.5-2.1c-1.4-.8-2.9-.1-4.4.2-3.4.8-6.8,1.6-10.2,2.5-6.5,1.7-13,3.6-19.4,5.8-12,4.3-23.4,10.2-32.9,18.8-1.5,1.5.6,3.7,2,2.4Z" fill="#e8e8e8"/>
        </g>
      </g>
      <g id="Group_152" data-name="Group 152">
        <g id="Group_151" data-name="Group 151">
          <path id="Path_76" data-name="Path 76" d="M1120.5,893.1c22.7,5.5,45.8,1.4,68.5-1.3,24.6-2.9,49.3-3.4,74-3.8a1.5,1.5,0,0,0,0-3c-24.1.4-48.2.9-72.1,3.6-23.1,2.7-46.6,7.2-69.6,1.6-1.8-.5-2.6,2.4-.8,2.9Z" fill="#e8e8e8"/>
        </g>
      </g>
      <g id="Group_154" data-name="Group 154">
        <g id="Group_153" data-name="Group 153">
          <path id="Path_77" data-name="Path 77" d="M1192.1,884.6q60.6-3.15,121.2-6.4c1.9-.1,1.9-3.1,0-3q-60.6,3.15-121.2,6.4c-1.9.1-1.9,3.1,0,3Z" fill="#e8e8e8"/>
        </g>
      </g>
      <g id="Group_156" data-name="Group 156">
        <g id="Group_155" data-name="Group 155">
          <path id="Path_78" data-name="Path 78" d="M1076.4,595.9c-9.9,1.9-22-7.6-21.7-18.1.4-11.9,15.3-15.9,24.8-16,10.5,0,17.9,8.1,15.4,18.7a21.014,21.014,0,0,1-7.6,11.3c-2.1,1.7-10.6,7.9-13,4.9-1.2-1.5-3.3.6-2.1,2.1,3.2,4,9.8-.1,13.2-2,5.2-3.1,9.9-7.8,11.9-13.6,4-11.7-3.1-23.4-15.4-24.3-11.7-.9-29.8,4.5-30.1,18.9-.2,12.6,13.6,23.2,25.5,21,1.8-.3,1-3.2-.9-2.9Z" fill="#e8e8e8"/>
        </g>
      </g>
      <g id="Group_158" data-name="Group 158">
        <g id="Group_157" data-name="Group 157">
          <path id="Path_79" data-name="Path 79" d="M308.8,643a73.962,73.962,0,0,0-9.6,13.8c-.9,1.7,1.7,3.2,2.6,1.5a74.387,74.387,0,0,1,9.2-13.2c1.2-1.4-.9-3.6-2.2-2.1Z" fill="#161616"/>
        </g>
      </g>
      <g id="Group_160" data-name="Group 160">
        <g id="Group_159" data-name="Group 159">
          <path id="Path_80" data-name="Path 80" d="M308.7,644.2c3,4.2,6,8.3,9,12.5,1.1,1.6,3.7.1,2.6-1.5-3-4.2-6-8.3-9-12.5-1.2-1.6-3.8-.1-2.6,1.5Z" fill="#161616"/>
        </g>
      </g>
      <g id="Group_162" data-name="Group 162">
        <g id="Group_161" data-name="Group 161">
          <path id="Path_81" data-name="Path 81" d="M308.5,650.1c.9,35.3,1.7,70.6,2.6,106a1.5,1.5,0,0,0,3,0c-.9-35.3-1.7-70.6-2.6-106-.1-1.9-3.1-2-3,0Z" fill="#161616"/>
        </g>
      </g>
      <g id="Group_164" data-name="Group 164">
        <g id="Group_163" data-name="Group 163">
          <path id="Path_82" data-name="Path 82" d="M314.4,758.9H447.6a1.5,1.5,0,0,0,0-3H314.4a1.5,1.5,0,0,0,0,3Z" fill="#161616"/>
        </g>
      </g>
      <g id="Group_166" data-name="Group 166">
        <g id="Group_165" data-name="Group 165">
          <path id="Path_83" data-name="Path 83" d="M441.8,755.9c3.1,1.2,6.1,2.4,9.2,3.6-.4-1.1-.9-2.2-1.3-3.3a17.307,17.307,0,0,1-6.2,6.4c-2.5,1.5-.2,5.4,2.3,3.9a21.654,21.654,0,0,0,7.9-8,2.264,2.264,0,0,0-1.3-3.3c-3.1-1.2-6.1-2.4-9.2-3.6-2.9-1.1-4.1,3.2-1.4,4.3Z" fill="#161616"/>
        </g>
      </g>
      <g id="Group_168" data-name="Group 168">
        <g id="Group_167" data-name="Group 167">
          <path id="Path_84" data-name="Path 84" d="M1209.8,215.8c-4-5.3,1.7-13.4,7.9-9.4,2.8,1.8,4.1,5.5,2.1,8.4a6.772,6.772,0,0,1-8.3,2.3c-1.7-.9-3.2,1.7-1.5,2.6a9.912,9.912,0,0,0,12-2.8c3.1-3.9,2-9.4-1.8-12.4-3.7-2.9-8.9-2.9-12.1.7a9.927,9.927,0,0,0-.7,12.2c.9,1.4,3.5-.1,2.4-1.6Z" fill="#5222d0"/>
        </g>
      </g>
      <g id="Group_170" data-name="Group 170">
        <g id="Group_169" data-name="Group 169">
          <path id="Path_85" data-name="Path 85" d="M1293,596.1c-.2-4.7,3.3-7.9,7.9-7.9,1.9,0,3.4.5,5.2-.3,3.4-1.5,4.7-5.4,5.8-8.7,1.6-4.8,2.8-7.1,8.8-5.6,1.6.4,2.6,1.2,4.3.6,5-1.9,2-10.5,9.6-9.1,1.9.4,2.7-2.5.8-2.9a8.24,8.24,0,0,0-6.8,1.2c-1.9,1.4-2.1,3.1-3.2,4.9-.1,1.9-1.4,2.7-3.8,2.4a11.941,11.941,0,0,0-1.6-.8c-1.1-.1-1.7-.7-2.9-.6a7.312,7.312,0,0,0-5.2,3.1c-1.9,2.3-2.4,5.1-3.5,7.9s-2.2,4.8-5.6,5.1c-1.5.1-2.9-.4-4.4-.2-5.3.8-8.7,5.7-8.5,10.9.2,2,3.2,2,3.1,0Z" fill="#5222d0"/>
        </g>
      </g>
      <g id="Group_172" data-name="Group 172">
        <g id="Group_171" data-name="Group 171">
          <path id="Path_86" data-name="Path 86" d="M344.3,753.2c14.1-28.3,16.3-60.2,24.6-90.3,2.1-7.7,4.2-16.7,10-22.5,8.5-8.5,19.3-2.5,22.8,7.5,2.6,7.6,2.7,16.4,3.2,24.4.5,8.6.9,17.2,1.4,25.8,1.1,18.4,3,36.9,9.2,54.4.6,1.8,3.5,1,2.9-.8-6.5-18.4-8.3-37.9-9.3-57.3-.5-9.5-.9-19.1-1.6-28.6-.6-7.6-.9-15.9-4.5-22.8-2.8-5.4-8.2-9.8-14.5-9.8-6.5,0-11.9,4.5-15.2,9.7-4.3,6.9-6.3,15.6-8.3,23.4-2.2,8.7-4,17.5-5.8,26.3-4,20.2-8.1,40.5-17.4,59.1-1,1.7,1.6,3.2,2.5,1.5Z" fill="#ffe57f"/>
        </g>
      </g>
      <g id="Group_174" data-name="Group 174">
        <g id="Group_173" data-name="Group 173">
          <path id="Path_87" data-name="Path 87" d="M358,629.2c-2-2.9,2.1-6.8,4.5-3.6,2.3,3-2,6-4.4,3.7-1.4-1.3-3.5.8-2.1,2.1a6.323,6.323,0,0,0,7.9.5,5.564,5.564,0,0,0,1-8.1,5.634,5.634,0,0,0-8.2-1.1,6.286,6.286,0,0,0-1.2,8c1,1.6,3.6.1,2.5-1.5Z" fill="#ffe57f"/>
        </g>
      </g>
      <g id="Group_176" data-name="Group 176">
        <g id="Group_175" data-name="Group 175">
          <path id="Path_88" data-name="Path 88" d="M380.1,615.9c-1.6-2.3,1.9-4.4,3.4-2,1.6,2.6-2.9,5.5-4.4,2.6-.9-1.7-3.4-.2-2.6,1.5a5.162,5.162,0,0,0,7.3,1.9,5.6,5.6,0,0,0,2.2-7.6c-1.4-2.3-4.7-3.5-7.1-2a5.154,5.154,0,0,0-1.6,7c1.3,1.7,3.9.2,2.8-1.4Z" fill="#ffe57f"/>
        </g>
      </g>
      <g id="Group_178" data-name="Group 178">
        <g id="Group_177" data-name="Group 177">
          <path id="Path_89" data-name="Path 89" d="M371.4,593.9c-.8-2.3,1.7-4.7,3.7-2.8s-.3,4.6-2.6,3.8c-1.8-.6-2.6,2.3-.8,2.9,5.2,1.7,9.6-4.9,5.5-8.8a5.173,5.173,0,0,0-6.7-.6,5.5,5.5,0,0,0-2,6.3c.7,1.8,3.6,1.1,2.9-.8Z" fill="#ffe57f"/>
        </g>
      </g>
      <g id="Group_180" data-name="Group 180">
        <g id="Group_179" data-name="Group 179">
          <path id="Path_90" data-name="Path 90" d="M409.6,620.6c-.3-.2.1.1.2.3v.3h.4a2.919,2.919,0,0,1,.9.2A17.1,17.1,0,0,0,410,620v2.4a17.1,17.1,0,0,1,1.1-1.4,3.973,3.973,0,0,1-2.4.2c-1.8-.6-2.6,2.3-.8,2.9a5.514,5.514,0,0,0,4-.2c.6-.3,1.1-.7,1.1-1.4v-2.4a1.41,1.41,0,0,0-1.1-1.4c-1.6-.4-3.5-.6-4.5,1-.8,1.2-.7,3.1.8,3.7a1.6,1.6,0,0,0,2.1-.5,1.83,1.83,0,0,0-.7-2.3Z" fill="#ffe57f"/>
        </g>
      </g>
      <g id="Group_182" data-name="Group 182">
        <g id="Group_181" data-name="Group 181">
          <path id="Path_91" data-name="Path 91" d="M576.6,222.5c.5.2-.6,5.2-.1,6.4a4.929,4.929,0,0,0,3.9,2.6c2.2.4,4.1-.6,5.9-1.7s6.1-4.9,7.4-.7c.3.9-.7,3.1-.4,4.3.9,4,4.7,3.8,7.4,1.7a20.188,20.188,0,0,0,2.4-2.7c1-2.4,2.5-2.9,4.4-1.5a4.671,4.671,0,0,0,.3,1.7c1,1.5,1.5,2.5,3.5,2.4,1.9-.1,1.9-3.1,0-3,.1,0-2.1-4.5-3.3-5a4.786,4.786,0,0,0-4.3.7,11.027,11.027,0,0,0-2.3,2c-1.5,1.5-1.4,3.7-3.8,2.2-2.3-1.4-.4-3.6-2-5.6-2.6-3.3-7-1.5-9.8.3-1.6,1-5.6,4.6-6.6-.7-.1-.7.5-1.8.5-2.5,0-1.6-.3-2.5-1.7-3.2-1.6-1.2-3.1,1.4-1.4,2.3Z" fill="#5222d0"/>
        </g>
      </g>
      <g id="Group_184" data-name="Group 184">
        <g id="Group_183" data-name="Group 183">
          <path id="Path_92" data-name="Path 92" d="M472,456.4c1.2,14,2.4,28,3.7,42a1.5,1.5,0,0,0,3,0c0-.3.1-.7.1-1,.2-1.9-2.8-1.9-3,0,0,.3-.1.7-.1,1h3c-1.2-14-2.4-28-3.7-42-.2-1.9-3.2-2-3,0Z" fill="#8b66e7"/>
        </g>
      </g>
      <g id="Group_186" data-name="Group 186">
        <g id="Group_185" data-name="Group 185">
          <path id="Path_93" data-name="Path 93" d="M474.3,457.5c4.2-.9,11.5-2.2,14.7,1.3,2.9,3.1,2.2,9.2,2.6,13.4.7,8.4,1.4,16.8,2.1,25.1.2,1.9,3.2,1.9,3,0-1-12-1.1-24.6-3.1-36.5-1.5-9.3-13.1-7.6-20.1-6.2-1.9.4-1.1,3.3.8,2.9Z" fill="#8b66e7"/>
        </g>
      </g>
      <g id="Group_188" data-name="Group 188">
        <g id="Group_187" data-name="Group 187">
          <path id="Path_94" data-name="Path 94" d="M499.9,401.1a736.889,736.889,0,0,1,3.3,96.3c-.1,1.9,2.9,1.9,3,0a737.493,737.493,0,0,0-3.3-96.3c-.2-1.9-3.2-2-3,0Z" fill="#8b66e7"/>
        </g>
      </g>
      <g id="Group_190" data-name="Group 190">
        <g id="Group_189" data-name="Group 189">
          <path id="Path_95" data-name="Path 95" d="M503.5,401.1c4.1.6,9.1.6,12.9,2,5.1,1.8,4.3,11,4.8,15.7.9,9.1,1.5,18.2,2.1,27.3,1.1,18.9,1.5,37.8,1.9,56.7a1.5,1.5,0,0,0,3,0c-.5-21.8-1-43.7-2.5-65.5-.7-10.2-1.2-20.5-2.8-30.6-1.4-8.6-11.7-7.5-18.6-8.6-1.9-.1-2.7,2.7-.8,3Z" fill="#8b66e7"/>
        </g>
      </g>
      <g id="Group_192" data-name="Group 192">
        <g id="Group_191" data-name="Group 191">
          <path id="Path_96" data-name="Path 96" d="M528.9,382.3q5.1,57,10.3,113.9c.2,1.9,3.2,1.9,3,0q-5.1-57-10.3-113.9c-.1-1.9-3.1-1.9-3,0Z" fill="#8b66e7"/>
        </g>
      </g>
      <g id="Group_194" data-name="Group 194">
        <g id="Group_193" data-name="Group 193">
          <path id="Path_97" data-name="Path 97" d="M530.8,383.8a51.017,51.017,0,0,1,14.6-.7c4.1.4,7,1.2,7.2,5.6.1,1.5.1,3.1.1,4.6.3,7.5.6,15,1,22.5,1.3,28.7,2.8,57.3,4.3,86,.1,1.9,3.1,1.9,3,0-1.6-31-3.2-61.9-4.6-92.9-.3-6.5-.6-12.9-.8-19.4-.1-2.9-.1-5.8-2.8-7.7-2.5-1.7-6.4-1.8-9.3-1.9a51.266,51.266,0,0,0-13.5,1c-1.9.4-1.1,3.3.8,2.9Z" fill="#8b66e7"/>
        </g>
      </g>
      <g id="Group_196" data-name="Group 196">
        <g id="Group_195" data-name="Group 195">
          <path id="Path_98" data-name="Path 98" d="M450.5,372.7c-3.3,6.5-6.5,13-9.8,19.5-.9,1.7,1.7,3.2,2.6,1.5,3.3-6.5,6.5-13,9.8-19.5.8-1.7-1.8-3.3-2.6-1.5Z" fill="#161616"/>
        </g>
      </g>
      <g id="Group_198" data-name="Group 198">
        <g id="Group_197" data-name="Group 197">
          <path id="Path_99" data-name="Path 99" d="M450.9,375.7a27.111,27.111,0,0,0,9.1,14.7c1.5,1.2,3.6-.9,2.1-2.1a24.643,24.643,0,0,1-8.3-13.3,1.492,1.492,0,1,0-2.9.7Z" fill="#161616"/>
        </g>
      </g>
      <g id="Group_200" data-name="Group 200">
        <g id="Group_199" data-name="Group 199">
          <path id="Path_100" data-name="Path 100" d="M448.8,377.1a454.968,454.968,0,0,0,17,129.7,1.5,1.5,0,0,0,2.9-.8,452.467,452.467,0,0,1-16.9-128.9,1.5,1.5,0,0,0-3,0Z" fill="#161616"/>
        </g>
      </g>
      <g id="Group_202" data-name="Group 202">
        <g id="Group_201" data-name="Group 201">
          <path id="Path_101" data-name="Path 101" d="M469.4,509.4q35.1-3.3,70.4-3.5c21.9-.1,45.6-1,65.8,8.9,1.7.8,3.2-1.7,1.5-2.6-19.6-9.6-42-9.4-63.4-9.3q-37.2,0-74.3,3.5c-1.9.2-1.9,3.2,0,3Z" fill="#161616"/>
        </g>
      </g>
      <g id="Group_204" data-name="Group 204">
        <g id="Group_203" data-name="Group 203">
          <path id="Path_102" data-name="Path 102" d="M593.3,504.5a129.424,129.424,0,0,1,15.4,10.9l.3-2.4c-4.1,3.1-8.1,6.2-12.2,9.3-1.5,1.2,0,3.8,1.5,2.6,4.1-3.1,8.1-6.2,12.2-9.3a1.572,1.572,0,0,0,.3-2.4,125.137,125.137,0,0,0-16-11.3,1.5,1.5,0,0,0-1.5,2.6Z" fill="#161616"/>
        </g>
      </g>
      <g id="Group_206" data-name="Group 206">
        <g id="Group_205" data-name="Group 205">
          <path id="Path_103" data-name="Path 103" d="M458.1,427.8l4.5,5.4a1.58,1.58,0,0,0,2.4-.3c8-15.7,15.9-31.5,24-47.2,2.1-4,5-.7,8,.4a8.286,8.286,0,0,0,5.8-.2c4.8-1.8,8-6.8,10.2-11.2,3.6-7.5,6.8-15.3,10.3-22.9.9-2.1,1.9-4.2,2.8-6.2.5-1.2,1.1-3.7,2.1-4.6,3.1-2.8,10.7,3.6,13.3,5.2,4.3,2.6,10.5,8.4,16.1,6.9,4.2-1.1,6.2-5.7,7.4-9.5,5.8-17.1,13.2-32.6,24.6-46.7a1.511,1.511,0,0,0-1.5-2.5,47.455,47.455,0,0,0-14.2,7.6c-1.4,1.1.4,3.1,1.8,2.4,3.9-1.9,7.9-3.9,11.8-5.8-.7-.3-1.5-.6-2.2-.9,1.2,6,2.4,12,3.5,18,.4,1.9,3.3,1.1,2.9-.8-1.2-6-2.4-12-3.5-18a1.522,1.522,0,0,0-2.2-.9c-3.9,1.9-7.9,3.9-11.8,5.8l1.8,2.4a41.159,41.159,0,0,1,12.9-6.9c-.5-.8-1-1.7-1.5-2.5a140.624,140.624,0,0,0-21.1,35.6c-1.4,3.4-2.6,6.9-3.7,10.4-.9,2.8-2.3,8.8-6,9.4-4.2.7-9.6-4.1-13-6.2s-6.7-4.4-10.2-6.3c-4-2.1-6.5-1.3-8.5,2.6-3.8,7.5-6.9,15.5-10.4,23.2-2.6,5.8-5.9,17.5-13,19.4-4.8,1.3-9.2-5.9-13.5-1.7-2.5,2.4-3.8,6.9-5.3,9.9-2.3,4.5-4.5,8.9-6.8,13.4-4.5,8.9-9.1,17.8-13.6,26.7l2.4-.3-4.5-5.4c-1.3-1.3-3.4.8-2.1,2.3Z" fill="#161616"/>
        </g>
      </g>
      <g id="Group_208" data-name="Group 208">
        <g id="Group_207" data-name="Group 207">
          <path id="Path_104" data-name="Path 104" d="M893.4,179.3c-9.8-5.4-14-19.1-7.8-28.8,6.3-9.9,21.6-11.7,30.5-4.4,9.1,7.6,9.2,23.2.5,31.1-9,8.3-24.1,6.1-31.5-3.1-1.2-1.5-3.3.6-2.1,2.1a25.78,25.78,0,0,0,29.3,7.2c9.8-4.1,14.9-14.7,13.6-25a22.145,22.145,0,0,0-19.8-19.7c-10.1-1.2-20.9,3.8-24.7,13.6-4.2,10.8.5,23.9,10.6,29.4,1.6,1.1,3.1-1.5,1.4-2.4Z" fill="#ffe57f"/>
        </g>
      </g>
      <g id="Group_210" data-name="Group 210">
        <g id="Group_209" data-name="Group 209">
          <path id="Path_105" data-name="Path 105" d="M936.8,197.7c-4.2-7.8,6.6-16.4,12-8,4.8,7.4-7,13-10.8,6.1-.9-1.7-3.5-.2-2.6,1.5,2.4,4.4,8,5.6,12.4,3.7,5.2-2.2,6.5-8.2,3.6-12.8-3-4.8-9.2-6.7-14-3.3a11.334,11.334,0,0,0-3.3,14.4c1.1,1.6,3.7.1,2.7-1.6Z" fill="#ffe57f"/>
        </g>
      </g>
      <g id="Group_212" data-name="Group 212">
        <g id="Group_211" data-name="Group 211">
          <path id="Path_106" data-name="Path 106" d="M884.2,954.1h236a1.5,1.5,0,0,0,0-3h-236a1.5,1.5,0,0,0,0,3Z" fill="#161616"/>
        </g>
      </g>
      <g id="Group_214" data-name="Group 214">
        <g id="Group_213" data-name="Group 213">
          <path id="Path_107" data-name="Path 107" d="M1169.6,954.1h45a1.5,1.5,0,0,0,0-3h-45a1.5,1.5,0,0,0,0,3Z" fill="#161616"/>
        </g>
      </g>
      <g id="Group_216" data-name="Group 216">
        <g id="Group_215" data-name="Group 215">
          <path id="Path_108" data-name="Path 108" d="M657.5,999.5h157a1.5,1.5,0,0,0,0-3h-157a1.5,1.5,0,0,0,0,3Z" fill="#161616"/>
        </g>
      </g>
      <g id="Group_218" data-name="Group 218">
        <g id="Group_217" data-name="Group 217">
          <path id="Path_109" data-name="Path 109" d="M812.5,987.5h136a1.5,1.5,0,0,0,0-3h-136a1.5,1.5,0,0,0,0,3Z" fill="#161616"/>
        </g>
      </g>
      <g id="Group_220" data-name="Group 220">
        <g id="Group_219" data-name="Group 219">
          <path id="Path_110" data-name="Path 110" d="M447,979.3h41c2.9,0,2.9-4.5,0-4.5H447c-2.9,0-2.9,4.5,0,4.5Z" fill="#161616"/>
        </g>
      </g>
      <g id="Group_222" data-name="Group 222">
        <g id="Group_221" data-name="Group 221">
          <path id="Path_111" data-name="Path 111" d="M502,979.3h14c2.9,0,2.9-4.5,0-4.5H502c-2.9,0-2.9,4.5,0,4.5Z" fill="#161616"/>
        </g>
      </g>
      <path id="Path_112" data-name="Path 112" d="M559.7,495.8" fill="none" stroke="#161616" stroke-miterlimit="10" stroke-width="1"/>
    </g>
    <g id="cat">
      <path id="Path_113" data-name="Path 113" d="M388.8,797.7c1.9.3,4.5,2.7,6.5,14.1L413,813c4.9-4.1,9.8-8.2,14.7-12.4.7,4,1.6,9.9,2.4,17.1,1.8,16.7.7,20.7,1.8,30a94.559,94.559,0,0,0,13.5,38.2c8.2,12.9,13.6,13.3,20,25.9a70.965,70.965,0,0,1,7.1,25.3c1-.1,13.7-1.1,21.8,8.8,3.7,4.6,7.8,13.2,4.7,20-3,6.6-9.9,5.6-22.4,16.5-4.4,3.8-8.6,7.6-7.6,10.6,1,3.1,6.4,2.5,15.9,7.6,5,2.7,7.4,4.1,8.2,6.5,3,8.7-16,22.1-18.8,24.1-9.2,6.4-20.4,11.4-21.8,9.4-2.1-3,20.5-19.5,17.1-25.9-2.5-4.8-16.7,1.2-20-4.1-3.6-5.8,9.1-20.3,15.9-28.2,13.1-15.2,21.4-19,20-24.1-1.5-5.4-12.9-9-18.8-5.3-5,3.1-4,10.1-5.9,14.7-3.6,8.8-20.8,16-80,9.4A26.589,26.589,0,0,1,399,963c-.9-1.5-6.1-10.4-2.9-21.2a27.187,27.187,0,0,1,10-14.1c-4-7.9-8-16.5-11.8-25.9-2.4-6.1-4.6-12-6.5-17.7-5.6,0-12.1-1-17.1-5.3-7.5-6.6-4.5-14.7-12.3-20.6-7.3-5.6-16-3.1-17.5-7.9-.7-2.3.7-5,2.2-6.4,3.8-3.6,10.6-1.8,18,.2a81.386,81.386,0,0,1,20.5,8.9,42.886,42.886,0,0,1-7.9-23C373,813.6,383,796.9,388.8,797.7Z" fill="#161616"/>
      <path id="Path_114" data-name="Path 114" d="M385.3,869.5c-6.9,3-4.3,23.3-1.8,41.8a331.61,331.61,0,0,0,9.4,45.3c-14,10.8-13.3,13.9-12.9,14.7,1.3,2.7,10.6,1.1,13.5.6,3.1-.5,7.5-1.3,10-2.9,7.1-4.7,3.4-19,1.2-41.8-3.2-33,.6-46.8-10-54.7C393.3,871.4,388.7,868,385.3,869.5Z" fill="#161616"/>
      <g id="Group_224" data-name="Group 224">
        <g id="Group_223" data-name="Group 223">
          <path id="Path_115" data-name="Path 115" d="M316.9,910.9a17.719,17.719,0,0,0,2.8-1.5c-.2-.1-.2,1.5-.2,1.9a20.277,20.277,0,0,0-.3,4.3,3.335,3.335,0,0,0,3.9,2.8,5.171,5.171,0,0,0,2.8-1.3,17.732,17.732,0,0,1,1.7-1.4,19.006,19.006,0,0,1,.3,2.5c.4,1.9,1.8,3.5,3.9,3.3,1.9-.2,1.9-3.2,0-3-1,.1-1.3-5.3-3-5.9a2.558,2.558,0,0,0-2.1.2c-1.5.7-3.7,3.9-4.4,1.1-.5-2.1,1.6-5.1-.3-6.9-1.8-1.7-4.8.3-6.5,1.2a1.521,1.521,0,0,0,1.4,2.7Z" fill="#fff"/>
        </g>
      </g>
      <g id="Group_226" data-name="Group 226">
        <g id="Group_225" data-name="Group 225">
          <path id="Path_116" data-name="Path 116" d="M385.7,830.3a3.825,3.825,0,0,1,5.8.8c.8,1.2,2.7.1,1.9-1.1a6.2,6.2,0,0,0-9.3-1.3c-1,1,.6,2.6,1.6,1.6Z" fill="#fff"/>
        </g>
      </g>
      <g id="Group_228" data-name="Group 228">
        <g id="Group_227" data-name="Group 227">
          <path id="Path_117" data-name="Path 117" d="M407.1,829.6a4.934,4.934,0,0,1,6.7-.2c1.1,1,2.7-.6,1.6-1.6a7.16,7.16,0,0,0-9.9.2c-1,1,.6,2.6,1.6,1.6Z" fill="#fff"/>
        </g>
      </g>
      <g id="Group_230" data-name="Group 230">
        <g id="Group_229" data-name="Group 229">
          <path id="Path_118" data-name="Path 118" d="M389.6,841.3c-1.1,2.2-5.8,9.8-.7,10.4,2.1.2,4.1-1.7,5.3-3.1a22.744,22.744,0,0,0,3.6-6.9c.7-1.8-2.2-2.6-2.9-.8-1.1,2.8-2.3,5.4-4.7,7.4-.5.4-.8,1.1-.6.2a5.094,5.094,0,0,1,.7-1.7c.6-1.3,1.2-2.6,1.9-3.9.8-1.9-1.8-3.4-2.6-1.6Z" fill="#ec615b"/>
        </g>
      </g>
      <g id="Group_232" data-name="Group 232">
        <g id="Group_231" data-name="Group 231">
          <path id="Path_119" data-name="Path 119" d="M392.3,842.9a25.64,25.64,0,0,0,3.5-2.2c-.4.1-.8.1-1.2.2.1,0,.2.1.3.1-.3-.2-.6-.5-.9-.7,0-.6-.1-.6-.5.1a8.741,8.741,0,0,0-.8,1,20.277,20.277,0,0,0-1.3,1.8c-.9,1.4-1.7,2.8-2.5,4.3-.9,1.7,1.7,3.2,2.6,1.5.9-1.6,1.8-3.3,2.8-4.8.8-1.2,2.5-2.5,2.6-4a1.934,1.934,0,0,0-1.8-2.1,2.193,2.193,0,0,0-1.7.7,13.066,13.066,0,0,1-2.8,1.7c-1.5.5,0,3.1,1.7,2.4Z" fill="#ec615b"/>
        </g>
      </g>
      <g id="Group_234" data-name="Group 234">
        <g id="Group_233" data-name="Group 233">
          <path id="Path_120" data-name="Path 120" d="M389.3,841.2a6.984,6.984,0,0,0,7-5.6c.2-1.4-1.9-2-2.2-.6a4.665,4.665,0,0,1-4.8,4c-1.5-.1-1.5,2.1,0,2.2Z" fill="#fff"/>
        </g>
      </g>
      <g id="Group_236" data-name="Group 236">
        <g id="Group_235" data-name="Group 235">
          <path id="Path_121" data-name="Path 121" d="M394.4,834.9a7.622,7.622,0,0,0,8,6.9c1.4-.1,1.4-2.4,0-2.3a5.334,5.334,0,0,1-5.8-4.6c-.1-1.4-2.3-1.4-2.2,0Z" fill="#fff"/>
        </g>
      </g>
    </g>
    <g id="color_chart">
      <path id="Path_122" data-name="Path 122" d="M1002.1,646.4q-49.65,60.15-99.2,120.2l155.7,38.7c1.7-21.5,2.1-65.4-21.8-111.3A198.068,198.068,0,0,0,1002.1,646.4Z" fill="#ffe57f"/>
      <path id="Path_123" data-name="Path 123" d="M893.2,774.7q78.6,19.8,157.3,39.5a115.011,115.011,0,0,1-27.5,67Q958.2,827.95,893.2,774.7Z" fill="#8b66e7"/>
    </g>
    <g id="chart">
      <ellipse id="Ellipse_1" data-name="Ellipse 1" cx="174.3" cy="178.7" rx="174.3" ry="178.7" transform="translate(711.2 595.2)" fill="none" stroke="#161616" stroke-miterlimit="10" stroke-width="3"/>
      <g id="Group_238" data-name="Group 238">
        <g id="Group_237" data-name="Group 237">
          <path id="Path_124" data-name="Path 124" d="M887.7,770.1a1.156,1.156,0,0,1,1.6.4c.1-.4.1-.8.2-1.2-.1.2-.4.1-.5,0a1.431,1.431,0,0,0-1.8,1,1.512,1.512,0,0,0,1,1.8,3.25,3.25,0,0,0,3.4-.8,2.272,2.272,0,0,0-.2-3.3,4.08,4.08,0,0,0-5.7-.2,1.524,1.524,0,1,0,2,2.3Z" fill="#161616"/>
        </g>
      </g>
      <g id="Group_240" data-name="Group 240">
        <g id="Group_239" data-name="Group 239">
          <path id="Path_125" data-name="Path 125" d="M993.1,634.5A1646.382,1646.382,0,0,1,890.4,768.6c-1.2,1.5.9,3.6,2.1,2.1A1644.347,1644.347,0,0,0,995.7,636c1.1-1.6-1.5-3.1-2.6-1.5Z" fill="#161616"/>
        </g>
      </g>
      <g id="Group_242" data-name="Group 242">
        <g id="Group_241" data-name="Group 241">
          <path id="Path_126" data-name="Path 126" d="M888.9,772q84.6,15.15,168,35.8a1.5,1.5,0,0,0,.8-2.9q-83.4-20.55-168-35.8c-1.9-.3-2.7,2.6-.8,2.9Z" fill="#161616"/>
        </g>
      </g>
      <g id="Group_244" data-name="Group 244">
        <g id="Group_243" data-name="Group 243">
          <path id="Path_127" data-name="Path 127" d="M888.7,771.5q64.05,58.65,132,112.9c1.5,1.2,3.6-.9,2.1-2.1q-67.8-54.15-132-112.9c-1.4-1.3-3.6.8-2.1,2.1Z" fill="#161616"/>
        </g>
      </g>
      <path id="Path_128" data-name="Path 128" d="M885.6,595.6c3.7,16.5,6.2,40-2.9,64-20.7,54.8-80.8,57.5-103.6,102.2-12.4,24.3-15.5,64.5,23.7,134.5v35.3a174.621,174.621,0,0,1-36.7-27.3c-46.7-45.7-53.9-105.4-55.4-128.1.1-16.4,2.4-69.7,41.7-117.3,8.9-10.8,40.5-47.8,94.3-59.7A161.076,161.076,0,0,1,885.6,595.6Z" fill="#6d6c6c" opacity="0.21"/>
    </g>
    <g id="leg_r">
      <path id="Path_129" data-name="Path 129" d="M589.6,876c6.9,17.4,13.8,34.7,20.6,52.1-4.1,9-10.4,22.3-19.1,38.2-11.4,20.8-16.8,27.8-15,29.9,2.6,3,19.5-4.5,85.1-53.6-4.1-11.4-8.3-22.9-12.4-34.6q-9-25.5-17.5-50.5Q610.6,866.8,589.6,876Z" fill="#161616"/>
      <path id="Path_130" data-name="Path 130" d="M774,571.2c11.1,18.9,3.2,48.2,2.1,52.1-6.1,22.7-19.9,24.9-70.5,72.8-31.7,30.1-40.8,42.3-47.5,55.7a142.009,142.009,0,0,0-13.7,47.1c4.1,24,8.2,47.9,12.3,71.9a173.042,173.042,0,0,1-44,20.6,176.649,176.649,0,0,1-35.1,6.9c-9.2-23.3-22.4-66.3-15.3-118.6,8.6-63.7,42.3-105.4,70.3-140C675.2,587.1,724.5,553,766.7,531c-1.4,7.5-2.2,18.3,2,29.7A56.749,56.749,0,0,0,774,571.2Z" fill="#8b66e7"/>
      <path id="Path_131" data-name="Path 131" d="M757.4,544.1a358.047,358.047,0,0,1-41.1,79.7c-40.5,58.9-70.4,63.7-94.3,118.4-15.3,35-18.6,68.4-19.6,80.4a277.517,277.517,0,0,0,2.5,69,85.058,85.058,0,0,0,20.3-3.2,83.958,83.958,0,0,0,31.6-17.1c-1.7-8.1-4.2-20.1-7-34.8-3.8-20.4-5.7-30.7-5.7-38,0-21.5,9.1-37.7,16.5-50.6,3.5-6.1,13.7-23,49.4-55.7,37.7-34.5,53.4-40.5,63.3-65.8a79.22,79.22,0,0,0,5.7-31C778.1,569.1,763.3,550.7,757.4,544.1Z" fill="#6d6c6c" opacity="0.2"/>
      <path id="Path_132" data-name="Path 132" d="M778.9,603.6c-20.5,17.2-49.8,42.9-83.5,75.9-48.9,48-57.6,62-61.4,69-10.6,19.5-28.8,63.9-10.8,138,5.9-2.4,12-5.1,18.4-8.2,5.1-2.5,10-5.1,14.6-7.6q-6-35.1-12-70.3a107.957,107.957,0,0,1,7.6-36.7c1.4-3.5,5.5-13.2,15.8-27.2,8.2-11.2,16.1-18.8,31.6-33.5,12.4-11.8,24.4-24.2,37.3-35.4,23.2-20.1,33.6-25.6,39.2-41.1A57.691,57.691,0,0,0,778.9,603.6Z" fill="#6d6c6c" opacity="0.27"/>
    </g>
    <g id="leg_l">
      <path id="Path_133" data-name="Path 133" d="M699.7,873.8l45.6,35.1c-20.2,51.2-20.2,64.5-16.1,66.8,6.8,3.9,29.1-20.2,41.8-37.9a175.039,175.039,0,0,0,21.7-41.2c-6.2-7.9-13.3-16.1-21.2-24.5A391.558,391.558,0,0,0,739.8,842C726.5,852.7,713.1,863.2,699.7,873.8Z" fill="#161616"/>
      <path id="Path_134" data-name="Path 134" d="M855.7,571.2c8.9,23.6,3.5,46.4,2.1,52.1-10.2,42.4-48.1,77.4-61.5,89.6-22.9,21-41.9,31.5-52.5,59.5a93.94,93.94,0,0,0-5.8,23.9q10.95,25.05,21.9,50c-4.8,10.3-15.3,29.3-36.5,43.8a103.662,103.662,0,0,1-25,12.5c-15.2-15.5-56.4-61.5-54.2-123,1.7-47.2,28.4-85.2,49-114.7,20.7-29.5,26-25.9,52.1-63.6,22.6-32.7,26.9-47.6,45.9-54.2,19.1-6.7,47.1-3,59.4,13.6C853,564.2,854.1,567.1,855.7,571.2Z" fill="#8b66e7"/>
      <path id="Path_135" data-name="Path 135" d="M637.3,615.8" fill="#ec615b"/>
      <path id="Path_136" data-name="Path 136" d="M809.2,566.7a119.62,119.62,0,0,1-2.7,43.2c-16,61.9-74.6,67.3-102.8,134.3-5.5,13.1-18.3,44.8-8.2,81.5,7.8,28.6,26,47.2,36.3,56.2a51.353,51.353,0,0,0,16.4-13.7,52.352,52.352,0,0,0,10.3-23.3c-7.1-17.1-14.2-34.3-21.2-51.4a98.558,98.558,0,0,1,10.3-30.2c8.6-16.2,19-24.4,32.4-36.5,24.6-22.1,40.3-36.1,53.9-55.4,8.6-12.3,21.1-30.4,25.2-56.9a117.993,117.993,0,0,0-3.3-50.6C840.3,564.9,824.7,565.8,809.2,566.7Z" fill="#6d6c6c" opacity="0.24"/>
      <path id="Path_137" data-name="Path 137" d="M860.1,598.8a346.519,346.519,0,0,1-42.5,61.3c-40.4,46.5-67.8,56.2-86.6,92-8.1,15.4-15.5,40.8-6.4,81.6,11.5,4.6,23.1,9.2,34.6,13.9-7.3-17.2-14.5-34.3-21.8-51.5a85.436,85.436,0,0,1,9.9-34.1c6.3-11.6,13.3-17.7,28.7-31.7,25.5-23.2,38.3-34.8,43.5-40.6,11.9-13.1,24.9-27.8,33.1-50.5A122.337,122.337,0,0,0,860.1,598.8Z" fill="#6d6c6c" opacity="0.25"/>
    </g>
    <g id="hand_r">
      <path id="Path_138" data-name="Path 138" d="M616.7,431.8a68.234,68.234,0,0,0-16-22.6c-10.8-9.9-25.9-17-28.3-14.1-1,1.2-.9,5.4,17.3,25.5" fill="#fff" stroke="#161616" stroke-miterlimit="10" stroke-width="2"/>
      <path id="Path_139" data-name="Path 139" d="M579,415.4c-3.9,2.4-10.8,7.5-14.5,16.3-1.4,3.4-3.2,7.8-1.9,12.9,2.3,8.8,12.9,12.5,13.8,12.9,4.3,1.5,5.4.4,8.5,2.2,5,2.9,4.8,6.8,8.5,10.4,7.6,7.3,23,4.4,23.7,1.3.4-1.7-4-3.3-3.6-6.4.2-1.9,2.1-2.7,3.4-3.9,7-6.4.3-25.1-.9-28.2a62.184,62.184,0,0,0-5.8-11.8" fill="#fff" stroke="#161616" stroke-miterlimit="10" stroke-width="2"/>
      <g id="Group_246" data-name="Group 246">
        <g id="Group_245" data-name="Group 245">
          <path id="Path_140" data-name="Path 140" d="M560.9,443.3c2.3,6,6.7,11.3,12.8,13.7,6.2,2.5,10.8-.8,10.9-7.4a1.5,1.5,0,0,0-3,0c-.1,7.7-7.7,4.9-11.5,1.8a20.2,20.2,0,0,1-6.3-8.9c-.7-1.8-3.6-1.1-2.9.8Z" fill="#161616"/>
        </g>
      </g>
      <g id="Group_248" data-name="Group 248">
        <g id="Group_247" data-name="Group 247">
          <path id="Path_141" data-name="Path 141" d="M568.4,435.1c3,5.6,7,11.8,13.2,14.1,5.6,2.1,8.9-1.3,9.5-6.6.2-1.9-2.8-1.9-3,0-.9,7.9-8.6,2.4-11.3-.4a36.1,36.1,0,0,1-5.8-8.6c-.9-1.7-3.5-.2-2.6,1.5Z" fill="#161616"/>
        </g>
      </g>
      <g id="Group_250" data-name="Group 250">
        <g id="Group_249" data-name="Group 249">
          <path id="Path_142" data-name="Path 142" d="M577.4,421.6a72.185,72.185,0,0,0,6.1,11.7c1.7,2.5,4.1,6.1,7.4,6.7,7.8,1.5,5.3-9.6,3.8-13.4-.7-1.8-3.6-1-2.9.8.7,1.7,2.2,5.2,1.6,7.1-1.7,5.5-6.3-1.3-7.3-2.7a72.185,72.185,0,0,1-6.1-11.7c-.8-1.8-3.4-.3-2.6,1.5Z" fill="#161616"/>
        </g>
      </g>
      <g id="Group_252" data-name="Group 252">
        <g id="Group_251" data-name="Group 251">
          <path id="Path_143" data-name="Path 143" d="M578.9,417.1c3-1.5,6.7,1.2,8.8,3.2a21.092,21.092,0,0,1,4.6,7.2c.7,1.8,3.6,1,2.9-.8-2.5-6.2-9.9-16.1-17.8-12.2-1.7.8-.2,3.4,1.5,2.6Z" fill="#161616"/>
        </g>
      </g>
      <path id="Path_144" data-name="Path 144" d="M795.8,386.4c3.2,9.5-1.7,17.6-15.4,42-23,40.6-24.4,44.2-29.7,50.6-12.5,15-19.6,23.5-32.7,29-23.9,10-50.4,1.2-64.9-4.3a119.6,119.6,0,0,1-30-16.9c-4.4-3.6-7.8-6.4-10-8.1-4.6-3.7-6.7-5.3-8.5-8.5a18.888,18.888,0,0,1-2.2-6.7c-1.5-10.7,9.1-19.7,9.9-20.4-12.7,3-17.1,2.4-17.9.6-1.9-4,11.9-18.7,21.6-15.4,4.6,1.5,6.9,6.7,8.6,10.5a32.177,32.177,0,0,1,2.5,17.3A92.014,92.014,0,0,0,653,468.5a94.615,94.615,0,0,0,50,.6c5.1-8.2,13.4-21.6,23.5-38.3,27.6-45.8,34.9-60.3,47.6-60.5C783.6,370.2,793,378.1,795.8,386.4Z" fill="#fff" stroke="#161616" stroke-miterlimit="10" stroke-width="2"/>
      <g id="Group_254" data-name="Group 254">
        <g id="Group_253" data-name="Group 253">
          <path id="Path_145" data-name="Path 145" d="M611.4,445.7c-8.6-.4-9.8,10.7-10.9,17,1,.1,2,.3,2.9.4.1-4,1.9-7.3,3.8-10.7a1.5,1.5,0,0,0-2.6-1.5c-3.9,6.3-6.3,14.1-.9,20.3l2.1-2.1a6.888,6.888,0,0,1-2.4-5.1c-1,.1-2,.3-2.9.4a26.229,26.229,0,0,0,1.9,4.6c.9,1.7,3.5.2,2.6-1.5a13.364,13.364,0,0,1-1.6-3.9c-.4-1.6-3.1-1.3-2.9.4a10.986,10.986,0,0,0,3.3,7.2c1.4,1.4,3.4-.7,2.1-2.1-4.4-5.1-1.6-11.6,1.4-16.7-.9-.5-1.7-1-2.6-1.5-2.2,3.9-4.1,7.6-4.2,12.2-.1,1.7,2.7,2.1,2.9.4.8-4.6,1.5-15,8-14.8,1.9.1,1.9-2.9,0-3Z" fill="#fff"/>
        </g>
      </g>
      <path id="Path_146" data-name="Path 146" d="M780.5,374.4a430.352,430.352,0,0,1-32.6,68.3c-16.4,27.9-25,41.9-39.8,49.3-30.4,15.1-77.3,4.9-93.1-24a50.694,50.694,0,0,1-5.9-24.4c-3.8,1.3-9.7,2.7-15.4.5-12.8-5.1-14-24.2-20.8-24-4.5.2-7.8,8.7-9,11.8-1.1,2.8-2.9,7.4-1.8,12.2,1.6,7.1,9.1,12.7,18.5,14.5a32.286,32.286,0,0,1,9.9,7.2c3.3,3.6,4.2,6.4,7.7,8.1a14.1,14.1,0,0,0,8.6.9,205.8,205.8,0,0,0,21.7,15.4c20.6,12.6,45.5,27.8,73.7,22.6,13.3-2.4,22.4-8.5,28-12.2,9.1-6.1,18.9-15.3,37.5-48.8a549.8,549.8,0,0,0,26.7-55.2,16.49,16.49,0,0,0-.5-13.1C790.1,375.3,781,374.4,780.5,374.4Z" fill="#6d6c6c" opacity="0.21"/>
      <path id="Path_147" data-name="Path 147" d="M591.3,443.9c-1.4,1-.8,3-2.5,4.5a5.751,5.751,0,0,1-3.8,1,8.314,8.314,0,0,1-1.3,4.8c-1.4,2-3.3,2.4-3.2,3.2.2.9,3,.4,5.7,1.9a10.363,10.363,0,0,1,3.8,4.1c6.6-6.3,13.2-12.5,19.8-18.8a18.43,18.43,0,0,1-11.2,1C595.4,444.6,593,442.7,591.3,443.9Z" fill="#6d6c6c" opacity="0.22"/>
    </g>
    <g id="torso">
      <path id="Path_148" data-name="Path 148" d="M795,366.8c-6.7,6.7-10.2,14.3-17,29.5-5.4,11.9-14.1,31.8-17,58.3-3.2,29.6,4.3,36.3-1.7,58.3A94.288,94.288,0,0,1,740,549.1a119.2,119.2,0,0,0,44.7,28.3c37.1,13,69.7,3.2,80.4-.6,8.9-24,17.7-48,26.6-71.9.1-20.3.9-37.6,1.7-51,2-32,5.3-56.5,7.4-71.4,2.4-17.5,4.9-32.2,6.8-43a440.911,440.911,0,0,0-54.4,6.2C809.6,353.7,799.3,362.5,795,366.8Z" fill="#fff" stroke="#161616" stroke-miterlimit="10" stroke-width="2"/>
      <path id="Path_149" data-name="Path 149" d="M848,346.4a152.355,152.355,0,0,1,11.6,49.7c3.1,51.6-21.8,92-40.7,122.6a337.133,337.133,0,0,1-41.6,54.1,104.964,104.964,0,0,0,32.2,10.7,107.5,107.5,0,0,0,55-5.8c8.4-24.2,16.7-48.3,25.1-72.5.5-16.5,1.4-33.6,2.7-51,3-40.6,7.9-78.7,13.9-114.1Z" fill="#6d6c6c" opacity="0.19"/>
      <path id="Path_150" data-name="Path 150" d="M865.9,343.3c7.2,18.6,14.7,45.7,13,78.3-4.8,90.7-76.6,145.6-89,154.8a111.809,111.809,0,0,0,30.4,6.3,110.6,110.6,0,0,0,43-5.8c9.2-24.2,18.5-48.3,27.7-72.5,0-22.1.8-45.7,2.7-70.7a892.909,892.909,0,0,1,12.1-93.1Z" fill="#6d6c6c" opacity="0.11"/>
    </g>
    <g id="hand_l">
      <path id="Path_151" data-name="Path 151" d="M903.9,338.2c8.1,3,20,8.8,28.6,20.5,9.6,13.1,11.7,28.9,6.2,79-5.1,46.6-9.5,56.6-11.2,84.6a318.633,318.633,0,0,0,3.7,72.1l34.2-8.1c12.4,3.3,19.9,9.4,23.6,13.1,3.7,3.6,11.5,11.2,9.3,17.4-1.4,4-6.5,6-8.7,6.8-4.3,1.7-7.9,1.5-11.8,1.2-8.3-.5-16.6-.8-24.9-1.2a176.906,176.906,0,0,0-18,0c10.1,8.7,14.4,14.3,13.1,16.8-1.8,3.3-13.8,1-36.1-6.8-1-8.1-2.6-20.4-5-35.4-6.2-39.2-10.7-53.2-13.7-74-3.1-21.5-2.1-40.9,0-79.6C894.8,417.2,897.7,381,903.9,338.2Z" fill="#fff" stroke="#161616" stroke-miterlimit="10" stroke-width="2"/>
      <g id="Group_256" data-name="Group 256">
        <g id="Group_255" data-name="Group 255">
          <path id="Path_152" data-name="Path 152" d="M950.3,610.3c7.7-3.2,15.7-1.4,23.1,1.9,6.3,2.7,12.5,6,17.4,10.8,1.4,1.3,3.5-.8,2.1-2.1-5.7-5.5-12.8-9.2-20.1-12.1-7.5-3.1-15.6-4.5-23.4-1.3-1.6.6-.8,3.5.9,2.8Z" fill="#161616"/>
        </g>
      </g>
      <g id="Group_258" data-name="Group 258">
        <g id="Group_257" data-name="Group 257">
          <path id="Path_153" data-name="Path 153" d="M960.1,601.1c13.3-2.6,29.1,5.3,36.4,16.6,1.1,1.6,3.7.1,2.6-1.5-8.2-12.5-25-20.8-39.8-17.9-1.9.3-1.1,3.2.8,2.8Z" fill="#161616"/>
        </g>
      </g>
      <g id="Group_260" data-name="Group 260">
        <g id="Group_259" data-name="Group 259">
          <path id="Path_154" data-name="Path 154" d="M971.6,594.2c5.3.2,9.9,2.5,14.5,5,1.7.9,3.2-1.7,1.5-2.6-5.1-2.7-10.2-5.2-16-5.4-1.9-.1-1.9,2.9,0,3Z" fill="#161616"/>
        </g>
      </g>
      <path id="Path_155" data-name="Path 155" d="M905.3,340.6A209.472,209.472,0,0,1,921,393.9c8.7,57.8-12.7,87.9-8.9,150.4a263.106,263.106,0,0,0,13,66.7,82.633,82.633,0,0,1,34.5-3.6c10.1,1.2,15.1,1.8,20.1,5.4s7.9,8.4,13,8.1c2-.1,4.7-1,5.8-3.1,2.7-4.9-4.7-13.3-7.2-16.1-3.6-4.1-11-11.1-24.6-15.2l-35.4,7.2a234.37,234.37,0,0,1-5.8-48.3c-.3-18,2.9-39.8,9.4-82.8,1.2-8,2.7-24.1,5.8-56.4,1-10.6,1.8-20.1-1.8-31.8-1.8-5.9-6.2-19.3-19.2-27.7A39.934,39.934,0,0,0,905.3,340.6Z" fill="#6d6c6c" opacity="0.16"/>
      <path id="Path_156" data-name="Path 156" d="M927.2,623a30.729,30.729,0,0,0,9.8,13c3.5,2.6,9.6,5.8,10.7,4.5,1.4-1.6-3.9-10.4-12.1-14.8A24.451,24.451,0,0,0,927.2,623Z" fill="#6d6c6c" opacity="0.22"/>
      <path id="Path_157" data-name="Path 157" d="M938.4,422.9a284.427,284.427,0,0,0-17,114.6A281.135,281.135,0,0,0,933,601.9a224.28,224.28,0,0,1-7.2-47.4c-1.2-29.9,4.2-46.7,9.8-101.6C937,440.2,937.9,429.7,938.4,422.9Z" fill="#6d6c6c" opacity="0.4"/>
      <path id="Path_158" data-name="Path 158" d="M958.6,598.8c-.2-1.2,9.8-5.8,19.7-3.6,13.3,3,19.5,17,20.6,19.7-4.7-5.3-12.3-12.2-23.3-14.8C966.3,598,958.7,599.8,958.6,598.8Z" fill="#6d6c6c" opacity="0.22"/>
    </g>
    <g id="head">
      <path id="Path_159" data-name="Path 159" d="M758.2,317.7c-4.2,3.9-5.1,12.1-6.8,28.2-1.9,18.5-2.7,27.9,1.2,32.6,7.1,8.6,22.4,9.1,33,4.4,12.5-5.6,16.8-17.7,17.9-20.7,4.9-13.9,3.3-34.9-11.5-44.5C782,311.1,766.5,310,758.2,317.7Z" fill="#ffe57f"/>
      <path id="Path_160" data-name="Path 160" d="M779.8,332.3c1.5,7.2,9.5,7.8,16.3,19.3a45.991,45.991,0,0,1,6,22.9,66.563,66.563,0,0,0,49.2-23.2c-2.5-4.1-6.2-10.1-10.6-17.3-19-30.5-21.8-32.9-25.6-33.9C799.7,296.4,776.9,318.9,779.8,332.3Z" fill="#fff" stroke="#161616" stroke-miterlimit="10" stroke-width="2"/>
      <g id="Group_262" data-name="Group 262">
        <g id="Group_261" data-name="Group 261">
          <path id="Path_161" data-name="Path 161" d="M810.9,320.2c-4.6,9.7-9.3,19.3-15.7,28l2.4-.3c-.6-.7-1.2-1.5-1.7-2.2a11.022,11.022,0,0,0-.2,1.8,30.686,30.686,0,0,0,6.4-7.5c-.9-.5-1.7-1-2.6-1.5a11.386,11.386,0,0,1-6.1,6.1l1.8,2.4a113.738,113.738,0,0,0,14.1-16.1c1.1-1.6-1.5-3.1-2.6-1.5a105.613,105.613,0,0,1-13.6,15.5c-1.3,1.2.4,3,1.8,2.4a14.054,14.054,0,0,0,7.2-7.2,1.5,1.5,0,0,0-2.6-1.5,35.324,35.324,0,0,1-5.9,6.9,1.377,1.377,0,0,0-.2,1.8,11.825,11.825,0,0,0,2.2,2.8,1.58,1.58,0,0,0,2.4-.3c6.4-8.6,11.1-18.3,15.7-28,.6-1.8-2-3.3-2.8-1.6Z" fill="#161616"/>
        </g>
      </g>
      <path id="Path_162" data-name="Path 162" d="M714,243.4c-4.6,8.5-3.5,17.1-1.3,33.9,2.6,19,6,34.9,10.1,45.4a3.635,3.635,0,0,0,3.9,2.3c2.2-.2,5.5-1.9,7.4-2.5A58.545,58.545,0,0,0,746.7,338a59.582,59.582,0,0,0,31.8,13.8c5.9-2.2,20.5-8.7,30.2-24.3a57.34,57.34,0,0,0,8-22.2,53.923,53.923,0,0,0-5.4-30.2,21.17,21.17,0,0,0,7.5-7.5c4.6-8.1,4.4-21.5-2.9-25.1-5.5-2.7-14.2.3-20.1,8a57.6,57.6,0,0,0-9.2-12.1c-1.1-1.1-9.2-9.3-18.4-13C750.2,218.3,723.4,226.1,714,243.4Z" fill="#fff" stroke="#161616" stroke-miterlimit="10" stroke-width="2"/>
      <g id="Group_264" data-name="Group 264">
        <g id="Group_263" data-name="Group 263">
          <path id="Path_163" data-name="Path 163" d="M740.4,331.7c6.9-1.8,10.9-7.6,14.4-13.3,1-1.6-1.6-3.1-2.6-1.5-3.1,5-6.6,10.3-12.6,12-1.9.4-1.1,3.3.8,2.8Z" fill="#161616"/>
        </g>
      </g>
      <g id="Group_266" data-name="Group 266">
        <g id="Group_265" data-name="Group 265">
          <path id="Path_164" data-name="Path 164" d="M749.5,318.2a6.634,6.634,0,0,1,4.9,2.4c1.3,1.5,3.4-.7,2.1-2.1a9.515,9.515,0,0,0-7-3.3,1.5,1.5,0,0,0,0,3Z" fill="#161616"/>
        </g>
      </g>
      <g id="Group_268" data-name="Group 268">
        <g id="Group_267" data-name="Group 267">
          <path id="Path_165" data-name="Path 165" d="M741.9,301.7v-.3a1.5,1.5,0,0,0-3,0v.3a1.538,1.538,0,0,0,1.5,1.5,1.612,1.612,0,0,0,1.5-1.5Z" fill="#161616"/>
        </g>
      </g>
      <g id="Group_270" data-name="Group 270">
        <g id="Group_269" data-name="Group 269">
          <path id="Path_166" data-name="Path 166" d="M748.6,293.7a1.5,1.5,0,0,0,0-3,1.5,1.5,0,0,0,0,3Z" fill="#161616"/>
        </g>
      </g>
      <g id="Group_272" data-name="Group 272">
        <g id="Group_271" data-name="Group 271">
          <path id="Path_167" data-name="Path 167" d="M747.7,301.3a1.5,1.5,0,0,0,0-3,1.5,1.5,0,0,0,0,3Z" fill="#161616"/>
        </g>
      </g>
      <path id="Path_168" data-name="Path 168" d="M709.7,277.5c-3.2-1.1-10-4-13.9-10.7-6.1-10.4-1.2-22.5,1.2-28.2,1.3-3.2,4.9-11.1,22.3-26.6,13.2-11.9,19.9-17.8,27.4-21.1,26.8-11.7,54.2-.5,59.2,1.6,7.4,3,12.8,6.7,23.5,13.9,13,8.8,21.3,14.5,27.8,24.3,7.9,12,3.1,15.1,9.9,28.6,10.8,21.4,25.7,18.8,34.6,38.6,1.5,3.3,9.8,21.7.4,37.8-7.7,13.1-23.4,17.8-35,17.5-21.5-.6-35-19-42.1-28.6-13.5-18.3-16.1-37.7-16.7-48.1,8.5-4.3,11.8-13.5,8.7-19.9-2.4-5.1-9.4-9.4-15.5-6.8-4.2,1.8-6.9,6.6-6.8,11.9A44.633,44.633,0,0,1,749,241a73.537,73.537,0,0,0-23.5,14.7A71.383,71.383,0,0,0,709.7,277.5Z" fill="#ffe57f"/>
      <path id="Path_169" data-name="Path 169" d="M774.9,283.3a79.813,79.813,0,0,1,18.2,25.8,77.44,77.44,0,0,1,5.9,38.2c3.6-6.1,7.1-12.2,10.7-18.4,5.8,13,11.5,26,17.3,38.9a34.135,34.135,0,0,0,15.1-7.7,32.449,32.449,0,0,0,8.1-11c-8.4-6-24.9-19.6-34.5-43a97.605,97.605,0,0,1-7-29.4c8.1-4.4,11.5-13.2,8.8-19.8-1.9-4.8-7.8-10.2-14.3-8.4-5.5,1.5-9.3,7.4-8.4,14a47.664,47.664,0,0,1-45.5-20.6c2.7,17.7,9.5,27.3,15.2,32.8C768.1,278.4,769.6,278.4,774.9,283.3Z" fill="#6d6c6c" opacity="0.24"/>
      <path id="Path_170" data-name="Path 170" d="M808.9,288.1c-.7,0-.3,10.3-1.3,19.8a90.618,90.618,0,0,1-7.9,28.4,35.828,35.828,0,0,0,16.4-27.9,42.534,42.534,0,0,1-3.2-5.9C809.4,294.5,809.5,288.1,808.9,288.1Z" fill="#6d6c6c" opacity="0.24"/>
      <path id="Path_171" data-name="Path 171" d="M812.4,322.8a115.781,115.781,0,0,0,10.2,9.4c13.3,11.1,26.2,17.4,26.6,16.7s-12.2-5.8-21.8-19.6c-6-8.6-9.5-18.8-11-18.3-.7.2-.1,2.6-1.3,6.5A23.357,23.357,0,0,1,812.4,322.8Z" fill="#6d6c6c" opacity="0.19"/>
      <path id="Path_172" data-name="Path 172" d="M823.5,202.7a493.5,493.5,0,0,1,25.9,51.4c15.9,37.1,14.6,47.3,12.4,53.9-4.9,14.9-18.5,23.3-26.6,27.3,2,2.8,10.3,13.9,25.5,17,2.9.6,20.4,3.9,33.7-8.2,9.9-8.9,11.4-20.7,11.7-23.8,1.8-16.8-8.2-29.4-11.4-33-4.2-4.7-5.1-3.6-14.9-13.1-7.6-7.3-11.3-11-13.5-15.6-3.5-7.5-1.2-10.7-5.3-20.2a57.021,57.021,0,0,0-6.7-11.4C844.6,213.9,830.6,206.2,823.5,202.7Z" fill="#ddc76f" opacity="0.74"/>
      <path id="Path_173" data-name="Path 173" d="M752.4,351.2a19.73,19.73,0,1,0,39.1-4.7,38.291,38.291,0,0,1,6.8,11.3,36.432,36.432,0,0,1,2.4,10.5c-1.5,2.5-9.3,14.9-23.9,17.3-2.5.4-16.7,2.5-23.4-6-3.2-4.2-3.5-9.3-3.7-13.4A37.422,37.422,0,0,1,752.4,351.2Z" fill="#e6ce73" opacity="0.52"/>
      <path id="Path_174" data-name="Path 174" d="M733.6,285.2c1,2,1,4.9-.3,5.5-1.3.7-3.8-1.2-4.7-3.4-.7-1.9-.5-4.6.8-5.1C730.8,281.7,732.8,283.5,733.6,285.2Z" fill="#161616"/>
      <g id="Group_274" data-name="Group 274">
        <g id="Group_273" data-name="Group 273">
          <path id="Path_175" data-name="Path 175" d="M725.4,282.9a65.626,65.626,0,0,1,10.8-2.7c1.4-.2.8-2.4-.6-2.2a65.626,65.626,0,0,0-10.8,2.7,1.141,1.141,0,0,0,.6,2.2Z" fill="#161616"/>
        </g>
      </g>
    </g>
  </g>
</svg>
