<svg xmlns="http://www.w3.org/2000/svg" width="556.214" height="456.993" viewBox="0 0 556.214 456.993">
  <g id="mainSectionImage" transform="translate(-581.01 -526.274)">
    <g id="cat" transform="translate(-144 -409)">
      <path id="Path_53" data-name="Path 53" d="M815.418,1044.565c77.2-52.2,115.921-78.424,125.969-81.61,24.507-7.843,103.912-33.085,173.268,9.313,49.75,30.389,95.579,96.315,76.464,140.428-13.724,31.37-55.632,41.173-93.619,50.24-56.122,13.234-104.157,5.882-131.115-.49a150.059,150.059,0,0,1-51.221,33.085c-39.457,15.195-85.041,12.5-87.247,3.431-.98-4.656,8.823-13.724,56.367-32.35a76.7,76.7,0,0,0-25.733-18.625c-34.8-15.93-69.6-.49-76.218,2.7,34.066,19.851,41.418,30.145,39.7,35.781-4.411,14.215-73.768,18.871-92.393-13.724-1.961-3.186-7.352-14.215-2.941-35.046C735.523,1099.462,767.383,1077.161,815.418,1044.565Z" transform="translate(0 18.947)" fill="#161616"/>
      <path id="Path_54" data-name="Path 54" d="M921.891,1017.072c7.843-16.175,43.133-12.254,56.858-10.783,17.646,1.961,33.33,3.676,47.545,16.175,10.783,9.313,26.468,29.654,20.831,46.074-5.146,15.685-24.508,14.459-62,32.84-6.372,3.186-67.641,33.33-63.475,53.181,1.716,8.088,12.744,7.842,47.79,22.792,30.389,12.744,48.28,20.586,63.229,37.742,7.352,8.578,22.057,25.488,18.136,42.643-7.352,31.615-73.032,37.006-74.748,32.1-1.47-4.166,44.6-15.685,45.094-37.251.49-16.42-25.243-29.654-41.418-38.232-47.545-24.752-79.649-15.93-92.148-39.7-7.107-13.479-3.186-27.938-2.451-30.634,3.676-13.234,13.969-24.508,64.21-49.75,45.829-23.037,66.17-28.429,65.925-38.722-.245-9.558-17.89-17.4-28.674-20.1-30.389-8.087-52.691,11.029-62.984.245C919.2,1030.8,919.44,1022.464,921.891,1017.072Z" transform="translate(229.77 100.847)" fill="#161616"/>
      <path id="Path_55" data-name="Path 55" d="M728.3,968.363l46.319,34.556c22.057-2.206,43.869-4.166,65.925-6.372,13.724-13.234,27.448-26.713,41.173-39.947.98,8.333,2.941,27.2,3.676,36.271,8.578,81.61,9.313,88.717,4.166,98.03-16.91,30.144-74.013,42.4-106.853,21.322-15.93-10.293-22.057-25.733-33.575-55.387A324.091,324.091,0,0,1,728.3,968.363Z" transform="translate(4.773 30.939)" fill="#161616"/>
      <g id="Group_106" data-name="Group 106" transform="translate(773.002 1083.124)">
        <g id="Group_105" data-name="Group 105">
          <path id="Path_56" data-name="Path 56" d="M766.912,996.577c-3.676,7.6-11.764,12.254-20.1,10.783-2.206-.49-3.186,3.186-.98,3.431,10.048,1.716,20.1-3.186,24.263-12.5.98-1.961-1.961-3.921-3.186-1.716Z" transform="translate(-744.593 -995.602)" fill="#fff"/>
        </g>
      </g>
      <g id="Group_108" data-name="Group 108" transform="translate(828.804 1078.614)">
        <g id="Group_107" data-name="Group 107">
          <path id="Path_57" data-name="Path 57" d="M767.945,996.8a34.721,34.721,0,0,0,29.9,9.558c2.451-.245,1.225-3.921-.98-3.431a31.107,31.107,0,0,1-26.468-8.578,1.735,1.735,0,1,0-2.451,2.451Z" transform="translate(-767.362 -993.762)" fill="#fff"/>
        </g>
      </g>
      <g id="Group_110" data-name="Group 110" transform="translate(808.293 1101.608)">
        <g id="Group_109" data-name="Group 109">
          <path id="Path_58" data-name="Path 58" d="M767.1,1006.466h0c-.735,0-1.225-.245-1.961-.245.245-.245.245-.735.49-.98.49.49,1.225.98,1.716,1.47,0-.49-.245-.735-.245-1.225-.735-2.206-4.166-1.225-3.431.98,1.225,5.392,3.186,13.724-3.431,16.42-2.206.98-1.225,4.411.98,3.431,8.823-3.676,7.842-13.234,6.127-21.076-1.225.245-2.451.735-3.431.98,0,.49.245.735.245,1.226a2.1,2.1,0,0,0,1.715,1.47c6.372-.49,1.225-9.313-1.715-4.166-1.225,1.715,1.715,3.676,2.941,1.715Z" transform="translate(-758.993 -1003.144)" fill="#fff"/>
        </g>
      </g>
      <g id="Group_112" data-name="Group 112" transform="translate(813.9 1104.422)">
        <g id="Group_111" data-name="Group 111">
          <path id="Path_59" data-name="Path 59" d="M761.328,1006.516c1.225,4.166,1.47,8.823,4.166,12.5a9.182,9.182,0,0,0,9.313,3.676c2.206-.49,1.225-3.921-.98-3.431-6.862,1.47-7.842-9.313-9.068-13.724-.49-2.206-3.921-1.225-3.431.98Z" transform="translate(-761.28 -1004.293)" fill="#fff"/>
        </g>
      </g>
      <g id="Group_114" data-name="Group 114" transform="translate(778.044 1105.818)">
        <g id="Group_113" data-name="Group 113">
          <path id="Path_60" data-name="Path 60" d="M770.79,1009.121a46.475,46.475,0,0,0-22.3-4.167c-2.451.245-2.451,3.921,0,3.676a41.267,41.267,0,0,1,20.341,3.676c2.206.98,4.166-2.206,1.961-3.186Z" transform="translate(-746.65 -1004.862)" fill="#fff"/>
        </g>
      </g>
      <g id="Group_116" data-name="Group 116" transform="translate(779.578 1114.966)">
        <g id="Group_115" data-name="Group 115">
          <path id="Path_61" data-name="Path 61" d="M763.51,1008.607a24.551,24.551,0,0,0-15.685,7.107c-1.716,1.716.98,4.167,2.7,2.7a22.185,22.185,0,0,1,13.234-6.127c1.961-.245,1.961-3.921-.245-3.676Z" transform="translate(-747.276 -1008.595)" fill="#fff"/>
        </g>
      </g>
      <g id="Group_118" data-name="Group 118" transform="translate(828.563 1101.534)">
        <g id="Group_117" data-name="Group 117">
          <path id="Path_62" data-name="Path 62" d="M769.558,1009.941A47.241,47.241,0,0,1,791.37,1007c2.451.245,2.451-3.431,0-3.676a51.586,51.586,0,0,0-22.792,3.186c-2.206.735-1.471,4.411.98,3.431Z" transform="translate(-767.264 -1003.114)" fill="#fff"/>
        </g>
      </g>
      <g id="Group_120" data-name="Group 120" transform="translate(833.921 1111.222)">
        <g id="Group_119" data-name="Group 119">
          <path id="Path_63" data-name="Path 63" d="M771.288,1010.823a31.173,31.173,0,0,1,15.685,1.716c2.206.735,3.186-2.7.98-3.431a35.075,35.075,0,0,0-16.665-1.716c-2.451,0-2.451,3.921,0,3.431Z" transform="translate(-769.45 -1007.067)" fill="#fff"/>
        </g>
      </g>
      <g id="Group_122" data-name="Group 122" transform="translate(775.231 1068.107)">
        <g id="Group_121" data-name="Group 121">
          <path id="Path_64" data-name="Path 64" d="M748.192,994.683a11.283,11.283,0,0,1,11.764,0c1.961,1.225,3.921-1.96,1.961-3.186a15.749,15.749,0,0,0-15.44,0c-2.206,1.225-.245,4.411,1.716,3.186Z" transform="translate(-745.502 -989.475)" fill="#fff"/>
        </g>
      </g>
      <g id="Group_124" data-name="Group 124" transform="translate(826.537 1062.75)">
        <g id="Group_123" data-name="Group 123">
          <path id="Path_65" data-name="Path 65" d="M769.287,992.953a20.707,20.707,0,0,1,12.254-1.961c2.206.245,3.431-3.186.98-3.431a24.337,24.337,0,0,0-14.949,2.451c-2.451.735-.49,3.921,1.715,2.941Z" transform="translate(-766.437 -987.289)" fill="#fff"/>
        </g>
      </g>
      <g id="Group_126" data-name="Group 126" transform="translate(766.581 976.81)">
        <g id="Group_125" data-name="Group 125">
          <path id="Path_66" data-name="Path 66" d="M746.206,966.872c7.6-3.186,15.195-6.372,22.547-9.8a47.124,47.124,0,0,1-4.166-3.186,84.239,84.239,0,0,1-13.234,25.488c-1.47,1.961.98,4.9,3.186,4.167,8.333-3.186,16.665-6.127,25-9.313,3.186-1.225,1.961-6.617-1.47-5.392-8.333,3.186-16.665,6.127-25,9.313a47.13,47.13,0,0,0,3.186,4.166A84.4,84.4,0,0,0,770.223,955.6c.735-2.451-1.961-3.921-4.166-3.186-7.6,3.186-15.195,6.372-22.547,9.8-3.431,1.47-.49,6.127,2.7,4.656Z" transform="translate(-741.973 -952.222)" fill="#161616"/>
        </g>
      </g>
      <g id="Group_128" data-name="Group 128" transform="translate(778.944 935.274)">
        <g id="Group_127" data-name="Group 127">
          <path id="Path_67" data-name="Path 67" d="M751.141,946.856a54.967,54.967,0,0,1,15.93-6.127,47.132,47.132,0,0,0-3.186-4.166,81.674,81.674,0,0,1-8.087,14.214c-1.225,1.96.49,3.921,2.451,4.166a25.734,25.734,0,0,0,17.891-5.146c2.7-2.206,0-6.862-2.7-4.656a20.485,20.485,0,0,1-14.949,4.411,36.912,36.912,0,0,0,2.451,4.166,91.768,91.768,0,0,0,8.088-14.214,2.92,2.92,0,0,0-3.186-4.166,55.559,55.559,0,0,0-17.4,6.617c-3.186,1.961-.49,6.617,2.7,4.9Z" transform="translate(-747.017 -935.274)" fill="#161616"/>
        </g>
      </g>
      <g id="Group_130" data-name="Group 130" transform="translate(815.164 958.654)">
        <g id="Group_129" data-name="Group 129">
          <path id="Path_68" data-name="Path 68" d="M770.138,992.324c-8.087-8.087,5.882-12.744,7.352-19.851,1.47-8.333-8.333-16.175,2.7-22.547,3.186-1.716.245-6.617-2.7-4.656-3.921,2.206-7.107,5.637-8.087,10.293-1.47,7.843,5.392,12.5-.49,19.606-2.7,3.431-5.882,4.411-6.862,9.068s.98,8.578,4.166,12.009c2.7,2.451,6.617-1.47,3.921-3.921Z" transform="translate(-761.797 -944.814)" fill="#161616"/>
        </g>
      </g>
    </g>
  </g>
</svg>
